<?xml version="1.0" encoding="UTF-8"?>
<svg width="32px" height="32px" viewBox="0 0 32 32" version="1.1" xmlns="http://www.w3.org/2000/svg" xmlns:xlink="http://www.w3.org/1999/xlink">
    <!-- Generator: Sketch 58 (84663) - https://sketch.com -->
    <title>form_Retract_icon</title>
    <desc>Created with Sketch.</desc>
    <g id="切图" stroke="none" stroke-width="1" fill="none" fill-rule="evenodd">
        <g transform="translate(-93.000000, -1021.000000)" id="form_Retract_icon">
            <g transform="translate(93.000000, 1021.000000)">
                <rect id="矩形" fill="#FFFFFF" x="0" y="0" width="32" height="32" rx="10"></rect>
                <g id="icon_ic_next-step" transform="translate(9.000000, 9.000000)" fill="#220EDB">
                    <path d="M10.125598,4.30631753 L10.2502889,4.17729594 C10.5739624,3.78396041 10.583974,3.22221233 10.2745136,2.8180531 L10.1821902,2.71197994 L10.1544964,2.68389304 C9.74948506,2.27313225 9.10495999,2.22065112 8.6391167,2.54068845 L8.52662043,2.62846683 L4.45773531,6.28166665 L4.33304448,6.41068824 C4.05520584,6.74832416 4.00848463,7.21005253 4.19655571,7.58967945 C4.2518864,7.72596385 4.33461374,7.85479959 4.44543758,7.96719666 L8.37178709,11.3161098 C8.82151147,11.7722184 9.56361216,11.7849049 10.0293154,11.344446 C10.4950186,10.9039871 10.507972,10.1771756 10.0582476,9.72106701 L6.94280366,7.14158346 L10.125598,4.30631753 L10.2502889,4.17729594 L10.125598,4.30631753 Z" id="路径" transform="translate(7.291667, 7.000000) scale(-1, 1) translate(-7.291667, -7.000000) "></path>
                </g>
            </g>
        </g>
    </g>
</svg>