<?xml version="1.0" encoding="UTF-8"?>
<svg width="24px" height="24px" viewBox="0 0 24 24" version="1.1" xmlns="http://www.w3.org/2000/svg" xmlns:xlink="http://www.w3.org/1999/xlink">
    <!-- Generator: Sketch 58 (84663) - https://sketch.com -->
    <title>icon_ic_more</title>
    <desc>Created with Sketch.</desc>
    <g id="icon_ic_more" stroke="none" stroke-width="1" fill="none" fill-rule="evenodd">
        <rect id="形状结合" fill="#220EDB" x="2" y="2" width="20" height="20" rx="2"></rect>
        <path d="M8.70710678,9.29289322 L12.301,12.887 L15.8569336,9.33206024 C16.2174176,8.97157628 16.7846486,8.94384674 17.1769398,9.24887164 L17.2711472,9.33206024 C17.6616714,9.72258453 17.6616714,10.3557495 17.2711472,10.7462738 L17.2711472,10.7462738 L13.0285065,14.9889145 C12.7086326,15.3087884 12.2259697,15.3666573 11.8471949,15.1625213 C11.734227,15.1128912 11.6280689,15.0422824 11.5355339,14.9497475 L7.29289322,10.7071068 C6.90236893,10.3165825 6.90236893,9.68341751 7.29289322,9.29289322 C7.68341751,8.90236893 8.31658249,8.90236893 8.70710678,9.29289322 Z" id="形状结合" fill="#FFFFFF" transform="translate(12.282020, 12.140904) scale(-1, 1) rotate(90.000000) translate(-12.282020, -12.140904) "></path>
    </g>
</svg>