<?xml version="1.0" encoding="UTF-8"?>
<svg width="24px" height="24px" viewBox="0 0 24 24" version="1.1" xmlns="http://www.w3.org/2000/svg" xmlns:xlink="http://www.w3.org/1999/xlink">
    <!-- Generator: Sketch 58 (84663) - https://sketch.com -->
    <title>icon_ic_new_03</title>
    <desc>Created with Sketch.</desc>
    <g id="icon_ic_new_03" stroke="none" stroke-width="1" fill="none" fill-rule="evenodd">
        <rect id="形状结合" fill="#220EDB" x="2" y="2" width="20" height="20" rx="2"></rect>
        <path d="M12,5 C12.7731986,5 13.4,5.62680135 13.4,6.4 L13.4,6.4 L13.399,10.6 L17.6,10.6 C18.3731986,10.6 19,11.2268014 19,12 C19,12.7731986 18.3731986,13.4 17.6,13.4 L13.399,13.399 L13.4,17.6 C13.4,18.3277164 12.8447711,18.9257521 12.1348293,18.9935912 L12,19 C11.2268014,19 10.6,18.3731986 10.6,17.6 L10.6,17.6 L10.6,13.399 L6.4,13.4 C5.62680135,13.4 5,12.7731986 5,12 C5,11.2268014 5.62680135,10.6 6.4,10.6 L10.6,10.6 L10.6,6.4 C10.6,5.67228362 11.1552289,5.0742479 11.8651707,5.00640881 Z" id="形状结合" fill="#FFFFFF"></path>
    </g>
</svg>