<?xml version="1.0" encoding="UTF-8"?>
<svg width="24px" height="24px" viewBox="0 0 24 24" version="1.1" xmlns="http://www.w3.org/2000/svg" xmlns:xlink="http://www.w3.org/1999/xlink">
    <!-- Generator: Sketch 58 (84663) - https://sketch.com -->
    <title>icon_ic_see</title>
    <desc>Created with Sketch.</desc>
    <g id="icon_ic_see" stroke="none" stroke-width="1" fill="none" fill-rule="evenodd">
        <path d="M12.5,5 C5.55709497,5 2,11.9988827 2,11.9988827 C2,11.9988827 4.68893855,19 12.5,19 C19.576648,19 23,12.0256983 23,12.0256983 C23,12.0256983 19.5461453,5 12.5,5 Z M12.4987926,16 C9.88838208,16 8,14.2533197 8,12 C8,9.74872319 9.88838208,8 12.4987926,8 C15.1067883,8 17,9.74872319 17,12 C16.9975852,14.2492339 15.1092031,16 12.4987926,16 Z M12.4988824,9 C11.1198033,9 10,10.397796 10,12 C10,13.6047733 11.1175682,15 12.4988824,15 C13.8801967,15 15,13.6047733 15,12 C15,10.3952407 13.8824318,8.99490322 12.4988824,9 L12.4988824,9 Z" id="形状备份" fill="#220EDB" fill-rule="nonzero" transform="translate(12.500000, 12.000000) scale(1, -1) translate(-12.500000, -12.000000) "></path>
    </g>
</svg>