<?xml version="1.0" encoding="UTF-8"?>
<svg width="24px" height="24px" viewBox="0 0 24 24" version="1.1" xmlns="http://www.w3.org/2000/svg" xmlns:xlink="http://www.w3.org/1999/xlink">
    <!-- Generator: Sketch 58 (84663) - https://sketch.com -->
    <title>icon_ic_Import</title>
    <desc>Created with Sketch.</desc>
    <g id="icon_ic_Import" stroke="none" stroke-width="1" fill="none" fill-rule="evenodd">
        <path d="M10.9558279,7.88338963 L11.0621987,7.77100904 C11.338317,7.4284053 11.3468576,6.93911058 11.0828643,6.58707916 L11.0041054,6.49468715 L10.9804805,6.47022285 C10.6349749,6.11244133 10.0851458,6.06672914 9.6877459,6.34548856 L9.59177799,6.42194542 L6.12070836,9.60396139 L6.01433756,9.71634198 C5.77731998,10.0104302 5.73746323,10.4126055 5.89790222,10.7432688 C5.94510352,10.8619754 6.01567626,10.9741942 6.11021745,11.0720944 L9.45969333,13.9890701 C9.84334256,14.3863505 10.4764111,14.3974008 10.8736915,14.0137516 C11.2709719,13.6301023 11.2820222,12.9970338 10.8983729,12.5997534 L8.24066137,10.3529675 L10.9558279,7.88338963 L11.0621987,7.77100904 L10.9558279,7.88338963 Z" id="路径" fill="#220EDB"></path>
        <rect id="形状结合" fill="#220EDB" x="4" y="18" width="16" height="2" rx="1"></rect>
        <path d="M18.3270458,10.3061282 C18.3174071,10.8583289 17.8619463,11.2981622 17.3097457,11.2885235 L8.31111643,11.1314519 C7.7589158,11.1218132 7.31908245,10.6663524 7.32872114,10.1141518 C7.33835984,9.56195114 7.79382061,9.12211779 8.34602125,9.13175648 L17.3446505,9.28882814 C17.8968511,9.29846684 18.3366845,9.75392761 18.3270458,10.3061282 Z" id="矩形" fill="#220EDB"></path>
    </g>
</svg>