<?xml version="1.0" encoding="UTF-8"?>
<svg width="24px" height="24px" viewBox="0 0 24 24" version="1.1" xmlns="http://www.w3.org/2000/svg" xmlns:xlink="http://www.w3.org/1999/xlink">
    <!-- Generator: Sketch 58 (84663) - https://sketch.com -->
    <title>icon_ic_export</title>
    <desc>Created with Sketch.</desc>
    <g id="icon_ic_export" stroke="none" stroke-width="1" fill="none" fill-rule="evenodd">
        <path d="M9.6877459,6.34548856 C10.0851458,6.06672914 10.6349749,6.11244133 10.9804805,6.47022285 L10.9804805,6.47022285 L11.0041054,6.49468715 L11.0828643,6.58707916 C11.3468576,6.93911058 11.338317,7.4284053 11.0621987,7.77100904 L11.0621987,7.77100904 L10.9558279,7.88338963 L9.56031489,9.15187777 L17.3446505,9.28882814 C17.8968511,9.29846684 18.3366845,9.75392761 18.3270458,10.3061282 C18.3174071,10.8583289 17.8619463,11.2981622 17.3097457,11.2885235 L9.17931489,11.1458778 L10.8983729,12.5997534 C11.2525107,12.9664738 11.2703364,13.5341024 10.9585116,13.9210104 L10.8736915,14.0137516 C10.4764111,14.3974008 9.84334256,14.3863505 9.45969333,13.9890701 L9.45969333,13.9890701 L6.11021745,11.0720944 C6.01567626,10.9741942 5.94510352,10.8619754 5.89790222,10.7432688 C5.73746323,10.4126055 5.77731998,10.0104302 6.01433756,9.71634198 L6.01433756,9.71634198 L6.12070836,9.60396139 L9.59177799,6.42194542 Z" id="形状结合" fill="#220EDB" transform="translate(12.064258, 10.229645) scale(-1, 1) translate(-12.064258, -10.229645) "></path>
        <rect id="形状结合" fill="#220EDB" x="4" y="18" width="16" height="2" rx="1"></rect>
    </g>
</svg>