<?xml version="1.0" encoding="UTF-8"?>
<svg width="24px" height="24px" viewBox="0 0 24 24" version="1.1" xmlns="http://www.w3.org/2000/svg" xmlns:xlink="http://www.w3.org/1999/xlink">
    <!-- Generator: Sketch 58 (84663) - https://sketch.com -->
    <title>icon_ic_add to_03</title>
    <desc>Created with Sketch.</desc>
    <g id="icon_ic_add-to_03" stroke="none" stroke-width="1" fill="none" fill-rule="evenodd">
        <path d="M12,3 C12.8284271,3 13.5,3.67157288 13.5,4.5 L13.5,10.5 L19.5,10.5 C20.3284271,10.5 21,11.1715729 21,12 C21,12.8284271 20.3284271,13.5 19.5,13.5 L13.5,13.5 L13.5,19.5 C13.5,20.3284271 12.8284271,21 12,21 C11.1715729,21 10.5,20.3284271 10.5,19.5 L10.5,13.5 L4.5,13.5 C3.67157288,13.5 3,12.8284271 3,12 C3,11.1715729 3.67157288,10.5 4.5,10.5 L10.5,10.5 L10.5,4.5 C10.5,3.67157288 11.1715729,3 12,3 Z" id="形状结合" fill="#FFFFFF" transform="translate(12.000000, 12.000000) rotate(45.000000) translate(-12.000000, -12.000000) "></path>
    </g>
</svg>