<?xml version="1.0" encoding="UTF-8"?>
<svg width="24px" height="24px" viewBox="0 0 24 24" version="1.1" xmlns="http://www.w3.org/2000/svg" xmlns:xlink="http://www.w3.org/1999/xlink">
    <!-- Generator: Sketch 58 (84663) - https://sketch.com -->
    <title>icon_ic_seach</title>
    <desc>Created with Sketch.</desc>
    <g id="icon_ic_seach" stroke="none" stroke-width="1" fill="none" fill-rule="evenodd">
        <path d="M9,0 C13.9705627,0 18,4.02943725 18,9 C18,11.0383589 17.3223669,12.9184481 16.1800845,14.427284 L22.9132035,20.832497 C23.4986296,21.3894096 23.5217445,22.3154581 22.9648319,22.9008842 L22.9521674,22.9140319 L22.9521674,22.9140319 L22.9131954,22.953165 C22.3377193,23.528641 21.4083285,23.5402384 20.8186719,22.9793013 L13.995243,16.487633 C12.566089,17.4429654 10.8480957,18 9,18 C4.02943725,18 0,13.9705627 0,9 C0,4.02943725 4.02943725,0 9,0 Z M9,3 C5.6862915,3 3,5.6862915 3,9 C3,12.3137085 5.6862915,15 9,15 C12.3137085,15 15,12.3137085 15,9 C15,5.6862915 12.3137085,3 9,3 Z" id="形状结合" fill="#FFFFFF"></path>
    </g>
</svg>