<?xml version="1.0" encoding="UTF-8"?>
<svg width="32px" height="32px" viewBox="0 0 32 32" version="1.1" xmlns="http://www.w3.org/2000/svg" xmlns:xlink="http://www.w3.org/1999/xlink">
    <!-- Generator: Sketch 58 (84663) - https://sketch.com -->
    <title>icon_ic_personnel matters_02</title>
    <desc>Created with Sketch.</desc>
    <g id="icon_ic_personnel-matters_02" stroke="none" stroke-width="1" fill="none" fill-rule="evenodd">
        <path d="M27,3 C28.1045695,3 29,3.8954305 29,5 L29,27 C29,28.1045695 28.1045695,29 27,29 L5,29 C3.8954305,29 3,28.1045695 3,27 L3,22 L6,22 C6.55228475,22 7,21.5522847 7,21 C7,20.4871642 6.61395981,20.0644928 6.11662113,20.0067277 L6,20 L3,20 L3,17 L6,17 C6.55228475,17 7,16.5522847 7,16 C7,15.4871642 6.61395981,15.0644928 6.11662113,15.0067277 L6,15 L3,15 L3,12 L6,12 C6.55228475,12 7,11.5522847 7,11 C7,10.4871642 6.61395981,10.0644928 6.11662113,10.0067277 L6,10 L3,10 L3,5 C3,3.8954305 3.8954305,3 5,3 L27,3 Z M15.8001475,12.052857 L15.0358847,12.052857 C14.3225072,12.048695 13.7212919,12.5745152 13.6434057,13.2707376 L13.0071868,18.1460893 C12.9781827,18.3433783 13.0378215,18.5433145 13.1706445,18.694073 C13.3034675,18.8448316 13.4963972,18.9315691 13.6994249,18.9318027 L14.4556851,18.9318027 L15.0438874,25.9403662 C15.1102443,26.6459339 15.7146716,27.1847948 16.4363664,27.1818058 L17.9688935,27.1818058 C18.6919262,27.18071 19.2952674,26.639413 19.3613725,25.932509 L19.9455735,18.9318027 L20.6978322,18.9318027 C20.9002107,18.9313923 21.0926282,18.8455213 21.2260139,18.6960886 C21.3620385,18.5461327 21.4235591,18.3447952 21.3940717,18.1460893 L20.7578529,13.294309 C20.6876226,12.5918546 20.0842775,12.0573629 19.3653739,12.060739 L18.601111,12.060739 C18.4151008,12.0597687 18.2364295,12.1319173 18.1049403,12.2610959 L17.2006293,13.148952 L16.2963182,12.2532388 C16.164829,12.1240602 15.9861578,12.0519116 15.8001475,12.052857 Z M17.2006293,5.18181818 C15.6536999,5.18181818 14.3996658,6.41303373 14.3996658,7.93181508 C14.3996658,9.45059642 15.6536999,10.6818182 17.2006293,10.6818182 C18.7475587,10.6818182 20.0015927,9.45059642 20.0015927,7.93181508 C20.0015927,6.41303373 18.7475587,5.18181818 17.2006293,5.18181818 Z" id="形状结合" fill="#220EDB"></path>
    </g>
</svg>