<?xml version="1.0" encoding="UTF-8"?>
<svg width="32px" height="32px" viewBox="0 0 32 32" version="1.1" xmlns="http://www.w3.org/2000/svg" xmlns:xlink="http://www.w3.org/1999/xlink">
    <!-- Generator: Sketch 58 (84663) - https://sketch.com -->
    <title>icon_ic_organization_02</title>
    <desc>Created with Sketch.</desc>
    <g id="icon_ic_organization_02" stroke="none" stroke-width="1" fill="none" fill-rule="evenodd">
        <path d="M18,3 C19.1045695,3 20,3.8954305 20,5 L20,9 C20,10.1045695 19.1045695,11 18,11 L17,11 L17,14 L25,14 C25.5522847,14 26,14.4477153 26,15 L26,21 L27,21 C28.1045695,21 29,21.8954305 29,23 L29,27 C29,28.1045695 28.1045695,29 27,29 L23,29 C21.8954305,29 21,28.1045695 21,27 L21,23 C21,21.8954305 21.8954305,21 23,21 L24,21 L24,16 L17,16 L17,21 L18,21 C19.1045695,21 20,21.8954305 20,23 L20,27 C20,28.1045695 19.1045695,29 18,29 L14,29 C12.8954305,29 12,28.1045695 12,27 L12,23 C12,21.8954305 12.8954305,21 14,21 L15,21 L15,16 L8,16 L8,21 L9,21 C10.1045695,21 11,21.8954305 11,23 L11,27 C11,28.1045695 10.1045695,29 9,29 L5,29 C3.8954305,29 3,28.1045695 3,27 L3,23 C3,21.8954305 3.8954305,21 5,21 L6,21 L6,15 C6,14.4477153 6.44771525,14 7,14 L15,14 L15,11 L14,11 C12.8954305,11 12,10.1045695 12,9 L12,5 C12,3.8954305 12.8954305,3 14,3 L18,3 Z" id="形状结合" fill="#220EDB"></path>
    </g>
</svg>