<?xml version="1.0" encoding="UTF-8"?>
<svg width="32px" height="32px" viewBox="0 0 32 32" version="1.1" xmlns="http://www.w3.org/2000/svg" xmlns:xlink="http://www.w3.org/1999/xlink">
    <!-- Generator: Sketch 58 (84663) - https://sketch.com -->
    <title>icon_ic_check work_02</title>
    <desc>Created with Sketch.</desc>
    <g id="icon_ic_check-work_02" stroke="none" stroke-width="1" fill="none" fill-rule="evenodd">
        <path d="M22,3 C22.5522847,3 23,3.44771525 23,4 L23,6 L27,6 C28.1045695,6 29,6.8954305 29,8 L29,27 C29,28.1045695 28.1045695,29 27,29 L5,29 C3.8954305,29 3,28.1045695 3,27 L3,8 C3,6.8954305 3.8954305,6 5,6 L9,6 L9,4 C9,3.44771525 9.44771525,3 10,3 C10.5522847,3 11,3.44771525 11,4 L11,6 L21,6 L21,6 L21,4 C21,3.44771525 21.4477153,3 22,3 Z M10,21 L8,21 C7.44771525,21 7,21.4477153 7,22 C7,22.5128358 7.38604019,22.9355072 7.88337887,22.9932723 L8,23 L10,23 C10.5522847,23 11,22.5522847 11,22 C11,21.4477153 10.5522847,21 10,21 Z M17,21 L15,21 C14.4477153,21 14,21.4477153 14,22 C14,22.5128358 14.3860402,22.9355072 14.8833789,22.9932723 L15,23 L17,23 C17.5522847,23 18,22.5522847 18,22 C18,21.4477153 17.5522847,21 17,21 Z M24,21 L22,21 C21.4477153,21 21,21.4477153 21,22 C21,22.5128358 21.3860402,22.9355072 21.8833789,22.9932723 L22,23 L24,23 C24.5522847,23 25,22.5522847 25,22 C25,21.4477153 24.5522847,21 24,21 Z M10,17 L8,17 C7.44771525,17 7,17.4477153 7,18 C7,18.5128358 7.38604019,18.9355072 7.88337887,18.9932723 L8,19 L10,19 C10.5522847,19 11,18.5522847 11,18 C11,17.4477153 10.5522847,17 10,17 Z M17,17 L15,17 C14.4477153,17 14,17.4477153 14,18 C14,18.5128358 14.3860402,18.9355072 14.8833789,18.9932723 L15,19 L17,19 C17.5522847,19 18,18.5522847 18,18 C18,17.4477153 17.5522847,17 17,17 Z M24,17 L22,17 C21.4477153,17 21,17.4477153 21,18 C21,18.5128358 21.3860402,18.9355072 21.8833789,18.9932723 L22,19 L24,19 C24.5522847,19 25,18.5522847 25,18 C25,17.4477153 24.5522847,17 24,17 Z M25,10 L7,10 C6.44771525,10 6,10.4477153 6,11 C6,11.5128358 6.38604019,11.9355072 6.88337887,11.9932723 L7,12 L25,12 C25.5522847,12 26,11.5522847 26,11 C26,10.4477153 25.5522847,10 25,10 Z" id="形状结合" fill="#220EDB"></path>
    </g>
</svg>