<?xml version="1.0" encoding="UTF-8"?>
<svg width="32px" height="32px" viewBox="0 0 32 32" version="1.1" xmlns="http://www.w3.org/2000/svg" xmlns:xlink="http://www.w3.org/1999/xlink">
    <!-- Generator: Sketch 58 (84663) - https://sketch.com -->
    <title>icon_ic_workbench_02</title>
    <desc>Created with Sketch.</desc>
    <g id="icon_ic_workbench_02" stroke="none" stroke-width="1" fill="none" fill-rule="evenodd">
        <path d="M27,3 C28.1045695,3 29,3.8954305 29,5 L29,21 C29,22.1045695 28.1045695,23 27,23 L5,23 C3.8954305,23 3,22.1045695 3,21 L3,5 C3,3.8954305 3.8954305,3 5,3 L27,3 Z M26.1482137,7.28586707 C25.7586034,6.93266298 25.1564334,6.96217603 24.8032293,7.35178632 L24.8032293,7.35178632 L20.297013,12.3211226 L12.020752,12.3218384 C11.8272057,12.3218384 11.646502,12.3768235 11.4933914,12.4710567 C11.3595405,12.5193947 11.2339406,12.5972072 11.1266537,12.7044941 L11.1266537,12.7044941 L6.1769062,17.6542416 C5.78638191,18.0447659 5.78638191,18.6779308 6.1769062,19.0684551 C6.5674305,19.4589794 7.20059547,19.4589794 7.59111977,19.0684551 L7.59111977,19.0684551 L12.337013,14.3211226 L20.6812744,14.3218384 C21.0659013,14.3218384 21.3998106,14.1046908 21.5670958,13.7863022 L21.5670958,13.7863022 L26.2366408,8.73115548 C26.6010634,8.33680434 26.5890032,7.72504213 26.2093213,7.34536024 L26.2093213,7.34536024 L26.1652939,7.30173656 Z" id="形状结合" fill="#220EDB"></path>
        <rect id="矩形" fill="#220EDB" x="3" y="27" width="26" height="2" rx="1"></rect>
    </g>
</svg>