<?xml version="1.0" encoding="UTF-8"?>
<svg width="39px" height="71px" viewBox="0 0 39 71" version="1.1" xmlns="http://www.w3.org/2000/svg" xmlns:xlink="http://www.w3.org/1999/xlink">
    <!-- Generator: Sketch 58 (84663) - https://sketch.com -->
    <title>nav_logo</title>
    <desc>Created with Sketch.</desc>
    <g id="切图" stroke="none" stroke-width="1" fill="none" fill-rule="evenodd">
        <g transform="translate(-116.000000, -117.000000)" id="nav_logo">
            <g transform="translate(110.000000, 114.000000)">
                <g id="icon_ic_logo" fill="#FFFFFF">
                    <g id="logo">
                        <g id="编组" transform="translate(10.000000, 3.000000)">
                            <path d="M15.44502,0.798778581 C16.6689541,0.798778581 17.3616867,1.00334834 17.4823221,1.00334834 C17.4823221,1.00334834 17.4998968,1.00434906 17.5004214,1.0044544 C18.8258401,1.25674404 20.109686,1.78554497 21.2771261,2.53282106 C21.4943372,4.04421648 21.23271,5.56770799 20.5686365,6.89280696 C20.171774,6.64882783 19.7065308,6.5092001 19.2094657,6.51086233 C17.7607807,6.51566434 16.5902334,7.71887612 16.5949703,9.19826513 C16.5997071,10.6777157 17.7779669,11.8731088 19.226652,11.8682452 C20.675337,11.8633817 21.845945,10.6601699 21.8412081,9.18078088 C21.8411474,9.17376256 21.8406616,9.16686736 21.8406008,9.15984904 C22.816256,7.77185527 23.412235,6.13671249 23.5629945,4.43610448 C24.6052975,5.54802007 25.4497989,6.86761331 26.0012823,8.32110345 L26.0857247,8.68020194 C26.1881135,9.17487071 26.3074455,9.95088813 26.3246318,10.7711702 C26.3026479,13.3428322 24.9547119,15.4959804 22.944225,16.7180924 C22.4647105,16.1842072 21.7761069,15.8493593 21.0107421,15.8493593 C19.562057,15.8493593 18.3876231,17.0486309 18.3876231,18.5280199 C18.3876231,20.0074705 19.562057,21.2067422 21.0107421,21.2067422 C22.3248521,21.2067422 23.4131119,20.2199903 23.6041039,18.9324971 C26.1372835,17.5943365 27.9751793,15.1315201 28.4276694,12.1492245 C28.4724453,12.1905349 28.516705,12.2324084 28.5604367,12.2748345 C29.8097532,13.6987095 30.5648293,15.5730768 30.5648293,17.6447437 C30.5648293,22.0840187 27.0632131,25.6960616 22.7009084,25.8102498 C23.3115115,27.0513612 24.3209817,28.0565118 25.5597625,28.6538402 L25.5597625,28.6538402 C28.7257804,29.7533751 31,32.7932659 31,36.3707575 C31,36.6489067 30.9855205,36.9236325 30.9578732,37.1946186 L30.9578732,37.1946186 L30.9570338,37.218162 C30.924455,37.7596077 30.4641026,38.1718016 29.9287298,38.138883 C29.3934094,38.1059644 28.9857812,37.6404159 29.0183075,37.0990229 C29.0185173,37.0958627 29.018937,37.0928079 29.0168385,37.0895424 C29.0437515,36.853687 29.0576538,36.6138813 29.0576538,36.3707575 C29.0576538,33.8988579 27.6282268,31.7648879 25.5597625,30.773326 C23.2456719,29.9654238 21.4084068,28.1237185 20.5871171,25.7941855 L20.5871171,25.7941855 L20.4413257,25.7941855 C21.0120578,27.159861 21.3288222,28.6606872 21.3307633,30.2364626 C21.3318125,31.0847099 21.2411585,31.9114153 21.0690313,32.7073088 C22.9099163,34.2043428 24.0881562,36.5006412 24.0881562,39.0755629 C24.0881562,40.1959025 23.8650885,41.2635195 23.4614473,42.2355409 C23.4383641,42.2912129 23.4154908,42.3502031 23.3881057,42.4089299 C23.1872294,42.8766905 22.6585193,43.1157587 22.1750312,42.9447399 C21.6772211,42.768612 21.4111872,42.2239008 21.570881,41.7189554 C21.5888229,41.6336829 21.6866117,41.4351704 21.6996747,41.4025678 C21.9874278,40.6839936 22.1458625,39.8985287 22.1458625,39.0755629 C22.1458625,37.3983981 21.4875716,35.8769253 20.418295,34.7603253 C20.1335847,35.4317074 19.787704,36.0702762 19.3870531,36.6684472 C19.3706326,36.7002598 19.3524808,36.7315983 19.332283,36.7621468 C19.3064193,36.8011225 19.2781424,36.83757 19.2480293,36.871542 C19.2432553,36.8783891 19.2385862,36.8853415 19.2282512,36.8931366 C18.9083391,37.2332783 18.383616,37.3016437 17.9849062,37.0315002 C17.5615919,36.7447131 17.4330604,36.1798821 17.6772177,35.737719 C17.6837754,35.7175991 17.715305,35.6716184 17.7485658,35.6261644 C17.7772624,35.5870307 17.8039654,35.5529533 17.8056967,35.5503198 C18.2162104,34.9356105 18.5647666,34.2706541 18.8341581,33.5661954 C18.7726728,33.5339615 18.7106105,33.5026229 18.6479711,33.4782368 C17.4348441,33.0547189 16.3529242,32.3468893 15.4794874,31.4339108 C14.6059982,32.3468893 13.5240783,33.0547189 12.3110038,33.4724431 C12.2549746,33.4994627 12.1995749,33.5274304 12.14449,33.5560828 C12.4144585,34.2642811 12.7645362,34.932661 13.1770958,35.5502672 C13.1788271,35.5529006 13.2054777,35.586978 13.2342268,35.6261117 C13.2351711,35.6273758 13.2360629,35.6286925 13.2370072,35.6299566 C13.2674876,35.6715657 13.2990171,35.7174938 13.3055748,35.7376137 C13.5497846,36.1797767 13.4213581,36.7446604 12.9980437,37.0314476 C12.5993339,37.3016437 12.0746109,37.233331 11.7491378,36.8922413 C11.7443113,36.8853942 11.7396422,36.8784418 11.7348682,36.8715947 C11.7047551,36.8376227 11.6764782,36.8012278 11.6506669,36.7622522 C11.6304167,36.7317037 11.6122649,36.7003651 11.5958443,36.6685526 C11.1916785,36.0653252 10.8432272,35.4209101 10.557048,34.7432076 C9.47811835,35.8613351 8.81305995,37.389813 8.81305995,39.0755629 C8.81305995,39.8985287 8.97154708,40.6839936 9.25924766,41.4025678 C9.27231066,41.4351704 9.37009947,41.6336829 9.38804141,41.7189554 C9.54773517,42.2239008 9.28170132,42.768612 8.78389118,42.9447399 C8.30040311,43.1157587 7.77174542,42.8766905 7.57081668,42.4089299 C7.54343161,42.3502031 7.52061072,42.2912129 7.49747506,42.2355409 C7.09383388,41.2635195 6.87071379,40.1959025 6.87071379,39.0755629 C6.87071379,36.491424 8.05760984,34.1879098 9.90987907,32.6912972 C9.74000772,31.90046 9.65050786,31.0792849 9.65150464,30.236726 C9.65323588,28.6608979 9.96989538,27.160019 10.5405225,25.7941855 L10.5405225,25.7941855 L10.4085286,25.7941855 C9.58508798,28.1178722 7.75018362,29.9544158 5.44018507,30.7551023 C3.37177318,31.7524578 1.9422937,33.8864805 1.9422937,36.3582747 C1.9422937,36.6013986 1.95619608,36.8412569 1.98080067,37.0772703 C1.98106298,37.0803252 1.98143021,37.0834327 1.9815876,37.0865402 L1.98194554,37.2012726 C1.95528924,37.6922855 1.56834964,38.0958856 1.07121776,38.1264529 C0.535844957,38.1593716 0.0754925487,37.747125 0.0429137629,37.2057846 C0.0424416066,37.1978842 0.0423891448,37.1900364 0.0412874467,37.1822412 C0.0144269985,36.9112024 0,36.6364767 0,36.3582747 C0,32.7808358 2.27421959,29.7409977 5.44018507,28.6414101 C6.68520881,28.0410796 7.69856119,27.0288185 8.30816746,25.7790692 C3.89271898,25.7258727 0.329355261,22.0901284 0.329355261,17.6120357 C0.329355261,15.8939082 0.85720726,14.2832465 1.75675841,12.9497657 C1.977859,12.6605893 2.22083589,12.388938 2.48251271,12.1373426 C2.92886925,15.1715984 4.77338448,17.738089 7.32502564,19.1314728 C7.73628093,19.8971474 8.53286034,20.4163187 9.44840743,20.4163187 C10.7851693,20.4163187 11.8688137,19.3097013 11.8688137,17.9446371 C11.8688137,16.5795113 10.7851693,15.4728939 9.44840743,15.4728939 C8.63354866,15.4728939 7.91336606,15.8844509 7.47472208,16.5146842 C5.74820286,15.1941925 4.62982165,13.0899263 4.62629938,10.7184712 C4.59751394,9.83126879 4.77478125,8.88287146 4.90850602,8.32115921 C5.02952549,7.8427116 5.18130383,7.3767989 5.36151131,6.92568472 C6.92243397,3.93407244 9.75390595,1.7287839 13.1259456,1.03737303 C13.1796966,1.02633805 14.2210859,0.798778581 15.44502,0.798778581 Z M17.6846673,24.7039731 C17.7284729,25.0482229 17.7511889,25.3992146 17.7511889,25.7555785 C17.7511889,27.2443434 17.3570433,28.63983 16.6689541,29.8417551 C17.2167079,30.4740035 17.8892683,30.9929065 18.6479711,31.3529046 C18.8862526,31.4361229 19.1193929,31.5304545 19.3469723,31.6349514 C19.4169039,31.1795156 19.4537321,30.7134404 19.4531746,30.2388328 C19.4506368,28.1722274 18.7951789,26.2610507 17.6846673,24.7039731 Z M13.269586,24.742264 C12.1758097,26.2924419 11.5313688,28.1893978 11.5290471,30.2389381 C11.5284834,30.7100696 11.5648919,31.1727739 11.6338792,31.6251022 C11.8545335,31.5245555 12.0803292,31.4334367 12.3110038,31.3529046 L12.3110038,31.3529046 C13.0696541,30.9929065 13.742267,30.4740035 14.2900207,29.8417551 C13.6018791,28.63983 13.2077335,27.2443434 13.2077335,25.7555785 C13.2077335,25.4124347 13.2289281,25.0742945 13.269586,24.742264 Z M15.44502,23.8506168 C15.2536393,24.4508419 15.1500797,25.0909382 15.1500797,25.7555785 C15.1500797,26.4591945 15.2660728,27.1353695 15.4794874,27.7658272 C15.6928496,27.1353695 15.8088427,26.4591945 15.8088427,25.7555785 C15.8088427,25.0912542 15.7054405,24.4515267 15.5142696,23.8515122 C15.491134,23.8512488 15.4681557,23.8506695 15.44502,23.8506168 Z" id="形状结合"></path>
                        </g>
                    </g>
                </g>
                <g id="icon_ic_logo02" transform="translate(0.000000, 50.000000)">
                    <rect id="矩形" x="0" y="0" width="50" height="50"></rect>
                    <g id="编组" stroke-width="1" fill-rule="evenodd" transform="translate(6.000000, 0.000000)" fill="#FFFFFF">
                        <g id="编组-2" transform="translate(0.000000, 5.000000)">
                            <polygon id="Fill-1" points="26.7474287 1.33075671 25.0005239 1.33168077 25 0.00256684806 29.9993888 0 30 1.32906259 28.2241081 1.32998665 28.2265528 6.99922995 26.7498734 7"></polygon>
                            <polygon id="Fill-2" points="13 0.00117965138 13.0039554 7 14.9235105 6.99928195 14.9203004 1.3095669 16 1.3091053 15.9993121 0 14.9195552 0.000410313523"></polygon>
                            <polygon id="Fill-3" points="19.1161929 0.000769382955 18 0.00123101273 18.0006737 1.31046434 19.1169227 1.31000271 19.1200666 7 21 6.99928191 20.9961263 0"></polygon>
                            <polygon id="Fill-4" points="1.45499442 5.67061568 1.45258954 0 0 0.000770240829 0.00240487847 5.65978096 1.43502534 5.65901072 1.43558361 7 4 6.99866492 3.99944172 5.6692806"></polygon>
                            <path d="M8.91996408,1.24196473 L8.9261366,1.26103322 C8.9268335,1.25845103 8.92753039,1.25571986 8.92827707,1.25313767 L8.95022934,1.25308801 C8.99642369,1.4213774 9.04665008,1.60744418 9.09896717,1.79624212 L10.7397127,6.87670445 L12.4086826,6.87595959 L10.1051876,0.107588014 L7.7734184,0.121243836 L5.64056369,6.87893904 L7.31356563,6.87819418 L8.91996408,1.24196473 Z" id="Fill-5"></path>
                            <polygon id="Fill-7" points="32.9638029 1.32884058 32.9631558 0.0487190068 31.279352 0.0494638699 31.2799991 1.32958545"></polygon>
                            <path d="M35.6704034,0.0475421233 L35.6723945,3.96452842 C35.6729919,5.14965514 35.1890464,5.70224418 34.3086657,5.70264144 C33.4502374,5.7030387 32.9657443,5.12075445 32.965147,3.96572021 L32.9644998,2.64507808 L31.2806462,2.64582295 L31.2812436,3.84594623 C31.2823885,6.00535377 32.3833869,6.92888459 34.254258,6.92804099 C36.1911849,6.92714658 37.3461929,5.95246849 37.3451483,3.86332637 L37.3432062,0.0467972603 L35.6704034,0.0475421233 Z" id="Fill-9"></path>
                            <polygon id="Fill-11" points="8.24365495 16.7071086 8.24086736 11.2233277 6.63267689 11.2240229 6.6354147 16.6965812 8.23111079 16.695886 8.23175791 17.9926925 11.061311 17.991451 11.0606639 16.7058671"></polygon>
                            <polygon id="Fill-13" points="27.9198482 16.6984036 27.9170606 11.2146228 26.3089199 11.215318 26.311608 16.6878762 27.8831615 16.687181 27.8838087 17.9839875 30.7375042 17.9827461 30.7368571 16.6971622"></polygon>
                            <polygon id="Fill-15" points="24.8185698 12.4960901 24.8179227 11.2159685 23.2096825 11.2166637 23.2103296 12.4967853"></polygon>
                            <path d="M20.7277269,11.2177959 L20.7297181,15.1347822 C20.7303154,16.3199089 21.1931051,16.8721007 22.0340115,16.8717034 C22.8538615,16.8713558 23.3161037,16.2886247 23.3155063,15.1336401 L23.3148094,13.8129979 L24.9230995,13.8123027 L24.923648,15.012426 C24.9247919,17.1717839 23.8741194,18.0962582 22.0871748,18.0970533 C20.2371609,18.0978969 19.1329766,17.1241127 19.1319313,15.0350699 L19.1299899,11.2184911 L20.7277269,11.2177959 Z" id="Fill-17"></path>
                            <path d="M13.0013536,14.6317762 C13.0020012,15.8972985 13.6121847,16.9013738 14.7158214,16.9008774 C15.8511172,16.9003807 16.4286461,15.8556358 16.4279995,14.6302368 C16.4274514,13.4853327 15.9012938,12.3405776 14.7240846,12.3411236 C13.5993419,12.3416204 13.000707,13.3763344 13.0013536,14.6317762 M18.1203653,14.60948 C18.1215096,16.8793259 16.5559792,18.1153515 14.6533993,18.1161962 C12.6142275,18.1171392 11.3100835,16.7015022 11.3090873,14.672694 C11.3079928,12.5736204 12.7052722,11.1266991 14.7865067,11.1257552 C16.9308105,11.1248122 18.1193691,12.6308755 18.1203653,14.60948" id="Fill-19"></path>
                            <path d="M4.00794696,16.634539 C2.57846091,16.6351846 1.73715633,15.9767753 1.73650921,14.620926 C1.73586209,13.3968182 2.38785945,12.6829911 3.31458375,12.4580425 L3.31393664,11.1606897 C1.46063737,11.3817154 0.0536511496,12.6246932 0.0546959137,14.7120476 C0.0556920637,16.6404483 1.30503012,18.1126949 3.75412695,18.111603 C4.61608956,18.1112051 5.05179982,18.0078678 5.34608966,17.8671384 L5.34275451,16.4129671 C5.02750796,16.5336349 4.49144447,16.6343404 4.00794696,16.634539" id="Fill-21"></path>
                            <g id="编组" transform="translate(31.808392, 11.023973)">
                                <path d="M1.64468799,5.71235445 C1.78132967,5.74239726 2.00209683,5.74233283 2.20180774,5.74224829 C3.65235005,5.7515839 4.59799014,4.98790068 4.59719368,3.37085274 C4.60695025,1.96475 3.74468896,1.22192295 2.36766934,1.22251848 C2.01031027,1.22271747 1.77908964,1.25290925 1.64244796,1.28310103 L1.64468799,5.71235445 Z M0.0337099263,0.189046233 C0.622239841,0.0984212329 1.38952396,0.047869863 2.19897037,0.047471451 C3.54438072,0.0468767123 4.41689635,0.277486301 5.10040344,0.769344178 C5.83642672,1.29129452 6.29941554,2.12469692 6.30001342,3.31990411 C6.30061022,4.61551884 5.80700769,5.50960274 5.12404817,6.0622911 C4.37811899,6.65525171 3.24302234,6.9369589 1.85549947,6.93755715 C1.02514614,6.93795205 0.436516665,6.88794692 0.0370450785,6.83794178 L0.0337099263,0.189046233 Z" id="Fill-23"></path>
                            </g>
                        </g>
                    </g>
                </g>
            </g>
        </g>
    </g>
</svg>