<?xml version="1.0" encoding="UTF-8"?>
<svg width="32px" height="32px" viewBox="0 0 32 32" version="1.1" xmlns="http://www.w3.org/2000/svg" xmlns:xlink="http://www.w3.org/1999/xlink">
    <!-- Generator: Sketch 58 (84663) - https://sketch.com -->
    <title>icon_ic_pay_02</title>
    <desc>Created with Sketch.</desc>
    <g id="icon_ic_pay_02" stroke="none" stroke-width="1" fill="none" fill-rule="evenodd">
        <path d="M22,3.19702148 C22.5522847,3.19702148 23,3.64473673 23,4.19702148 L23,5.0065918 L27,5.0065918 C28.1045695,5.0065918 29,5.9020223 29,7.0065918 L29,27 C29,28.1045695 28.1045695,29 27,29 L5,29 C3.8954305,29 3,28.1045695 3,27 L3,7.0065918 C3,5.9020223 3.8954305,5.0065918 5,5.0065918 L9,5.0065918 L9,4.19702148 C9,3.64473673 9.44771525,3.19702148 10,3.19702148 L22,3.19702148 Z M18.8409091,11.2302738 L16.0071023,13.6166374 L13.4289773,11.2977454 C13.03125,10.9390806 12.4169034,10.9710408 12.0582386,11.3687681 C11.6995739,11.7664954 11.7315341,12.380842 12.1292614,12.7395067 L14.384233,14.7672056 L11.9694602,14.7672056 C11.4332386,14.7672056 11,15.2004442 11,15.7366658 C11,16.2728874 11.4332386,16.7061261 11.9694602,16.7061261 L15.0696023,16.7061261 L15.0696023,18.5420636 L11.9694602,18.5420636 C11.4332386,18.5420636 11,18.9753022 11,19.5115238 C11,20.0477454 11.4332386,20.480984 11.9694602,20.480984 L15.0696023,20.480984 L15.0696023,22.7998761 C15.0696023,23.3360977 15.5028409,23.7693363 16.0390625,23.7693363 C16.5752841,23.7693363 17.0085227,23.3360977 17.0085227,22.7998761 L17.0085227,20.480984 L20.1086648,20.480984 C20.6448864,20.480984 21.078125,20.0477454 21.078125,19.5115238 C21.078125,18.9753022 20.6448864,18.5420636 20.1086648,18.5420636 L17.0085227,18.5420636 L17.0085227,16.7132283 L20.115767,16.7132283 C20.6519886,16.7132283 21.0852273,16.2799897 21.0852273,15.7437681 C21.0852273,15.2075465 20.6519886,14.7743079 20.115767,14.7743079 L17.6548295,14.7743079 L20.0944602,12.7110977 C20.5028409,12.3666374 20.556108,11.7522908 20.2080966,11.3439102 C19.8636364,10.9355295 19.2492898,10.8822624 18.8409091,11.2302738 Z" id="形状结合" fill="#220EDB"></path>
    </g>
</svg>