<?xml version="1.0" encoding="UTF-8"?>
<svg width="32px" height="32px" viewBox="0 0 32 32" version="1.1" xmlns="http://www.w3.org/2000/svg" xmlns:xlink="http://www.w3.org/1999/xlink">
    <!-- Generator: Sketch 58 (84663) - https://sketch.com -->
    <title>icon_ic_recruit_02</title>
    <desc>Created with Sketch.</desc>
    <g id="icon_ic_recruit_02" stroke="none" stroke-width="1" fill="none" fill-rule="evenodd">
        <path d="M27,3 C28.1045695,3 29,3.8954305 29,5 L29,27 C29,28.1045695 28.1045695,29 27,29 L5,29 C3.8954305,29 3,28.1045695 3,27 L3,5 C3,3.8954305 3.8954305,3 5,3 L27,3 Z M14.5,8.015625 L7.234375,8.015625 L7.234375,10.28125 L7.859375,10.28125 L7.859375,20.671875 L7.46875,20.671875 C7.26041563,20.7239586 7.10416719,20.75 7,20.75 L7,20.75 L7.390625,23.171875 C8.39757448,22.998263 9.35821806,22.8362267 10.2725682,22.6857641 L10.2725682,22.6857641 L11.609375,22.46875 L11.609375,25.203125 L13.71875,25.203125 L13.71875,22.078125 C14.1354187,21.9739578 14.5260398,21.8958336 14.890625,21.84375 C14.9427086,21.583332 14.96875,21.1666695 14.96875,20.59375 C15.0059526,20.2217243 15.0298683,19.9161348 15.0404975,19.6769772 L15.0404975,19.6769772 L15.046875,19.421875 C14.6302063,19.4739586 14.1875023,19.5781242 13.71875,19.734375 L13.71875,19.734375 L13.71875,10.28125 L14.5,10.28125 L14.5,8.015625 Z M25.59375,16.6875 L14.265625,16.6875 L14.265625,18.5625 L16.609375,18.5625 L16.0625,21.21875 L22,21.21875 C21.9479164,21.5312516 21.921875,21.7916656 21.921875,22 C21.921875,22.5729195 21.5833367,22.859375 20.90625,22.859375 L20.90625,22.859375 L17.234375,22.859375 C17.3665872,23.0797287 17.5174428,23.5984 17.686945,24.4154014 L17.686945,24.4154014 L17.78125,24.890625 L21.453125,24.890625 C23.2239672,24.7864578 24.1874992,24.031257 24.34375,22.625 C24.34375,22.3124984 24.3583983,21.8974624 24.3876952,21.3798842 L24.3876952,21.3798842 L24.421875,20.828125 L24.421875,19.421875 L18.796875,19.421875 L18.953125,18.5625 L25.59375,18.5625 L25.59375,16.6875 Z M11.609375,18.171875 L11.609375,20.125 C11.0885391,20.1770836 10.5937523,20.2552078 10.125,20.359375 L10.125,20.359375 L10.125,18.171875 L11.609375,18.171875 Z M11.609375,14.1875 L11.609375,16.140625 L10.125,16.140625 L10.125,14.1875 L11.609375,14.1875 Z M21.0625,7 L18.640625,7 L18.640625,8.5625 L15.046875,8.5625 L15.046875,15.828125 L24.734375,15.828125 L24.734375,8.5625 L21.0625,8.5625 L21.0625,7 Z M22.703125,12.9375 L22.703125,14.109375 L21.0625,14.109375 L21.0625,12.9375 L22.703125,12.9375 Z M18.640625,12.9375 L18.640625,14.109375 L17,14.109375 L17,12.9375 L18.640625,12.9375 Z M11.609375,10.28125 L11.609375,12.15625 L10.125,12.15625 L10.125,10.28125 L11.609375,10.28125 Z M18.640625,10.203125 L18.640625,11.375 L17,11.375 L17,10.203125 L18.640625,10.203125 Z M22.703125,10.203125 L22.703125,11.375 L21.0625,11.375 L21.0625,10.203125 L22.703125,10.203125 Z" id="形状结合" fill="#220EDB"></path>
    </g>
</svg>