<?xml version="1.0" encoding="UTF-8"?>
<svg width="24px" height="24px" viewBox="0 0 24 24" version="1.1" xmlns="http://www.w3.org/2000/svg" xmlns:xlink="http://www.w3.org/1999/xlink">
    <!-- Generator: Sketch 58 (84663) - https://sketch.com -->
    <title>icon_ic_notice_02</title>
    <desc>Created with Sketch.</desc>
    <g id="icon_ic_notice_02" stroke="none" stroke-width="1" fill="none" fill-rule="evenodd">
        <path d="M14,21 L14,22 C14,23.1045695 13.1045695,24 12,24 C10.8954305,24 10,23.1045695 10,22 L10,21 L14,21 Z M12,1 C12.8251694,1 13.5336215,1.49972605 13.8392293,2.21305119 C17.3706522,3.04297986 20,6.21443138 20,10 L20,17 L22,17 C22.5522847,17 23,17.4477153 23,18 C23,18.5522847 22.5522847,19 22,19 L2,19 C1.44771525,19 1,18.5522847 1,18 C1,17.4477153 1.44771525,17 2,17 L4,17 L4,10 C4,6.21443138 6.62934784,3.04297986 10.1613993,2.21228967 C10.4663785,1.49972605 11.1748306,1 12,1 Z" id="形状结合" fill="#220EDB"></path>
    </g>
</svg>