<?xml version="1.0" encoding="UTF-8"?>
<svg width="50px" height="50px" viewBox="0 0 50 50" version="1.1" xmlns="http://www.w3.org/2000/svg" xmlns:xlink="http://www.w3.org/1999/xlink">
    <!-- Generator: Sketch 58 (84663) - https://sketch.com -->
    <title>icon_ic_add staff</title>
    <desc>Created with Sketch.</desc>
    <g id="icon_ic_add-staff" stroke="none" stroke-width="1" fill="none" fill-rule="evenodd">
        <g id="编组" transform="translate(0.000000, 6.000000)">
            <g>
                <path d="M4,38 L46,38 C48.209139,38 50,36.209139 50,34 L50,0.107142857 L50,0.107142857 L0,0.107142857 L0,34 C2.705415e-16,36.209139 1.790861,38 4,38 Z" id="Fill-23" fill="#F3F3F3"></path>
                <path d="M3.32142857,6.75 L46.6785714,6.75 C48.5129458,6.75 50,5.26294578 50,3.42857143 C50,1.59419708 48.5129458,0.107142857 46.6785714,0.107142857 L3.32142857,0.107142857 C1.48705422,0.107142857 -2.24646067e-16,1.59419708 0,3.42857143 C2.24646067e-16,5.26294578 1.48705422,6.75 3.32142857,6.75 Z" id="Fill-25" fill="#220EDB"></path>
                <path d="M3.33791209,4.53571429 L3.3543956,4.53571429 C3.96585372,4.53571429 4.46153846,4.04002954 4.46153846,3.42857143 C4.46153846,2.81711331 3.96585372,2.32142857 3.3543956,2.32142857 L3.33791209,2.32142857 C2.72645397,2.32142857 2.23076923,2.81711331 2.23076923,3.42857143 C2.23076923,4.04002954 2.72645397,4.53571429 3.33791209,4.53571429 Z" id="Fill-27" fill="#F6E62E"></path>
                <path d="M7.79945055,4.53571429 L7.81593407,4.53571429 C8.42739218,4.53571429 8.92307692,4.04002954 8.92307692,3.42857143 C8.92307692,2.81711331 8.42739218,2.32142857 7.81593407,2.32142857 L7.79945055,2.32142857 C7.18799243,2.32142857 6.69230769,2.81711331 6.69230769,3.42857143 C6.69230769,4.04002954 7.18799243,4.53571429 7.79945055,4.53571429 Z" id="Fill-29" fill="#F6E62E"></path>
                <path d="M12.1456044,4.53571429 L12.1620879,4.53571429 C12.773546,4.53571429 13.2692308,4.04002954 13.2692308,3.42857143 C13.2692308,2.81711331 12.773546,2.32142857 12.1620879,2.32142857 L12.1456044,2.32142857 C11.5341463,2.32142857 11.0384615,2.81711331 11.0384615,3.42857143 C11.0384615,4.04002954 11.5341463,4.53571429 12.1456044,4.53571429 Z" id="Fill-31" fill="#F6E62E"></path>
            </g>
            <g transform="translate(5.000000, 11.000000)">
                <g id="icon_ic_add-to_02" transform="translate(26.000000, 9.000000)" fill="#220EDB">
                    <path d="M7,1.75 C7.48324916,1.75 7.875,2.14175084 7.875,2.625 L7.875,6.125 L11.375,6.125 C11.8582492,6.125 12.25,6.51675084 12.25,7 C12.25,7.48324916 11.8582492,7.875 11.375,7.875 L7.875,7.875 L7.875,11.375 C7.875,11.8582492 7.48324916,12.25 7,12.25 C6.51675084,12.25 6.125,11.8582492 6.125,11.375 L6.125,7.875 L2.625,7.875 C2.14175084,7.875 1.75,7.48324916 1.75,7 C1.75,6.51675084 2.14175084,6.125 2.625,6.125 L6.124,6.125 L6.125,2.625 C6.125,2.14175084 6.51675084,1.75 7,1.75 Z" id="形状结合"></path>
                </g>
                <path d="M7.18746438,20.2500803 C6.46506868,20.2500803 -0.092743524,22.8841873 0.000995190602,26.7349741 C6.06740202,26.7349741 9.68400442,26.7349741 10.8508024,26.7349741 C12.5517798,26.7349741 20.8716559,27.3312824 22.3809524,26.7349741 C21.9006663,25.36593 20.9636294,24.0970995 19.5698418,22.9284825 C16.3103165,20.1955435 14.770586,20.2500803 14.3823788,20.2500803 L7.18746438,20.2500803 Z" id="Fill-17" fill="#F6E62E"></path>
                <path d="M8.95238095,19.6446381 C8.95238095,20.6001765 9.70404716,21.375 10.6312733,21.375 C11.5578576,21.375 12.3095238,20.6001765 12.3095238,19.6446381 L12.3095238,14.1060238 C12.3095238,13.1498235 11.5578576,12.375 10.6312733,12.375 C9.70404716,12.375 8.95238095,13.1498235 8.95238095,14.1060238 L8.95238095,19.6446381 Z" id="Fill-21" fill="#FFFFFF"></path>
                <path d="M7.27349292,10.125 C9.43714178,10.125 11.1904762,8.36245191 11.1904762,6.18765303 C11.1904762,4.01285414 9.43714178,2.25 7.27349292,2.25 C5.11047727,2.25 3.35714286,4.01285414 3.35714286,6.18765303 C3.35714286,8.36245191 5.11047727,10.125 7.27349292,10.125 Z" id="Fill-23" fill="#220EDB"></path>
                <path d="M4.47604914,13.5 C5.71219571,13.5 6.71428571,12.2413089 6.71428571,10.6878416 C6.71428571,9.13403267 5.71219571,7.875 4.47604914,7.875 C3.24046792,7.875 2.23809524,9.13403267 2.23809524,10.6878416 C2.23809524,12.2413089 3.24046792,13.5 4.47604914,13.5 Z" id="Fill-25" fill="#220EDB"></path>
                <path d="M6.71442705,11.25 C7.95029095,11.25 8.95238095,10.2425006 8.95238095,9 C8.95238095,7.75722614 7.95029095,6.75 6.71442705,6.75 C5.47828048,6.75 4.47619048,7.75722614 4.47619048,9 C4.47619048,10.2425006 5.47828048,11.25 6.71442705,11.25 Z" id="Fill-27" fill="#FFFFFF"></path>
                <path d="M16.785573,13.5 C18.0218461,13.5 19.0238095,12.2413089 19.0238095,10.6878416 C19.0238095,9.13403267 18.0218461,7.875 16.785573,7.875 C15.5495825,7.875 14.547619,9.13403267 14.547619,10.6878416 C14.547619,12.2413089 15.5495825,13.5 16.785573,13.5 Z" id="Fill-29" fill="#220EDB"></path>
                <path d="M5.5952381,11.2504552 C5.5952381,14.3565424 8.09972645,16.875 11.1900007,16.875 C14.280592,16.875 16.7857143,14.3565424 16.7857143,11.2504552 L16.7857143,6.7501821 C16.7857143,3.64345763 14.280592,1.125 11.1900007,1.125 C8.09972645,1.125 5.5952381,3.64345763 5.5952381,6.7501821 L5.5952381,11.2504552 Z" id="Fill-31" fill="#FFFFFF"></path>
                <path d="M11.6019536,6.32990413 C13.7648532,8.39003196 17.271636,8.39003196 19.4348465,6.32990413 L20.1428571,5.65691324 L16.2324741,1.9334054 C14.8786407,0.644567159 13.1047273,0 11.3305029,0 C9.67878892,0 8.02676401,0.558703826 6.71428571,1.6758154 L11.6019536,6.32990413 Z" id="Fill-33" fill="#220EDB"></path>
            </g>
        </g>
    </g>
</svg>