<?xml version="1.0" encoding="UTF-8"?>
<svg width="50px" height="50px" viewBox="0 0 50 50" version="1.1" xmlns="http://www.w3.org/2000/svg" xmlns:xlink="http://www.w3.org/1999/xlink">
    <!-- Generator: Sketch 58 (84663) - https://sketch.com -->
    <title>icon__ic_contract</title>
    <desc>Created with Sketch.</desc>
    <g id="icon__ic_contract" stroke="none" stroke-width="1" fill="none" fill-rule="evenodd">
        <g id="编组" transform="translate(8.000000, 2.000000)">
            <path d="M0,21.516129 L0,42 C2.705415e-16,44.209139 1.790861,46 4,46 L30,46 C32.209139,46 34,44.209139 34,42 L34,39.3225806 L34,39.3225806 L34,21.516129 L34,7.31845161 L25.3789398,0 L4,0 C1.790861,4.05812251e-16 -2.705415e-16,1.790861 0,4 L0,8.90322581 L0,8.90322581 L0,21.516129 Z" id="Fill-4" fill="#F6E62E"></path>
            <path d="M25.7380606,0 L25.037694,4.029587 C24.6594035,6.20609601 26.1171477,8.27717018 28.2936567,8.65546064 C28.8261078,8.74800387 29.3717903,8.73169064 29.8977623,8.60750575 L34,7.63894476 L34,7.63894476 L25.7380606,0 Z" id="Fill-10" fill="#AFA9E6"></path>
        </g>
        <rect id="Rectangle-7" fill="#220EDB" x="14" y="34" width="23" height="2" rx="1"></rect>
        <rect id="Rectangle-7" fill="#220EDB" x="14" y="38" width="23" height="2" rx="1"></rect>
        <polygon id="星形" fill="#220EDB" points="25 24.9648438 20.297718 26.472136 20.278153 21.5342211 17.3915479 17.527864 22.0817381 15.983357 25 12 27.9182619 15.983357 32.6084521 17.527864 29.721847 21.5342211 29.702282 26.472136"></polygon>
    </g>
</svg>