<?xml version="1.0" encoding="UTF-8"?>
<svg width="24px" height="24px" viewBox="0 0 24 24" version="1.1" xmlns="http://www.w3.org/2000/svg" xmlns:xlink="http://www.w3.org/1999/xlink">
    <!-- Generator: Sketch 58 (84663) - https://sketch.com -->
    <title>icon_ic_birthday_01</title>
    <desc>Created with Sketch.</desc>
    <g id="icon_ic_birthday_01" stroke="none" stroke-width="1" fill="none" fill-rule="evenodd">
        <path d="M9.83333333,8 C10.3856181,8 10.8333333,8.44771525 10.8333333,9 L10.833,12 L13.166,12 L13.1666667,9 C13.1666667,8.44771525 13.6143819,8 14.1666667,8 L14.5,8 C15.0522847,8 15.5,8.44771525 15.5,9 L15.499,12 L18,12 C18.5522847,12 19,12.4477153 19,13 L19,20 L21,20 C21.5522847,20 22,20.4477153 22,21 C22,21.5522847 21.5522847,22 21,22 L3,22 C2.44771525,22 2,21.5522847 2,21 C2,20.4477153 2.44771525,20 3,20 L5,20 L5,20 L5,13 C5,12.4477153 5.44771525,12 6,12 L8.499,12 L8.5,9 C8.5,8.44771525 8.94771525,8 9.5,8 L9.83333333,8 Z" id="形状结合" fill="#220EDB"></path>
        <path d="M10,6 C10.5522847,6 11,5.55228475 11,5 C11,4.44771525 10.5522847,3 10,3 C9.44771525,3 9,4.44771525 9,5 C9,5.55228475 9.44771525,6 10,6 Z" id="椭圆形" fill="#220EDB"></path>
        <path d="M14,6 C14.5522847,6 15,5.55228475 15,5 C15,4.44771525 14.5522847,3 14,3 C13.4477153,3 13,4.44771525 13,5 C13,5.55228475 13.4477153,6 14,6 Z" id="椭圆形" fill="#220EDB"></path>
    </g>
</svg>