<?xml version="1.0" encoding="UTF-8"?>
<svg width="24px" height="24px" viewBox="0 0 24 24" version="1.1" xmlns="http://www.w3.org/2000/svg" xmlns:xlink="http://www.w3.org/1999/xlink">
    <!-- Generator: Sketch 58 (84663) - https://sketch.com -->
    <title>icon_ic_delete_01</title>
    <desc>Created with Sketch.</desc>
    <g id="icon_ic_delete_01" stroke="none" stroke-width="1" fill="none" fill-rule="evenodd">
        <path d="M6,7 C5.44771525,7 5,6.55228475 5,6 C5,5.44771525 5.44771525,5 6,5 L10.0852495,5.00029246 C10.2910851,4.41754351 10.8467813,4 11.5,4 L12.5,4 C13.1532187,4 13.7089149,4.41754351 13.9147505,5.00029246 L18,5 C18.5522847,5 19,5.44771525 19,6 C19,6.55228475 18.5522847,7 18,7 L12.5,7 L12.5,7 L11.5,7 L6,7 Z" id="形状结合" fill="#AEB2B7"></path>
        <path d="M7,9 L17,9 L15.9754517,19.7330357 C15.9068751,20.4514347 15.3034515,21 14.5817869,21 L9.37808187,21 C8.6544278,21 8.0500278,20.4484973 7.98393345,19.7278678 L7,9 L7,9 Z" id="形状结合" fill="#AEB2B7"></path>
    </g>
</svg>