<?xml version="1.0" encoding="UTF-8"?>
<svg width="96px" height="130px" viewBox="0 0 96 130" version="1.1" xmlns="http://www.w3.org/2000/svg" xmlns:xlink="http://www.w3.org/1999/xlink">
    <!-- Generator: Sketch 58 (84663) - https://sketch.com -->
    <title>workbench_Shortcut_Addstaff_bg</title>
    <desc>Created with Sketch.</desc>
    <defs>
        <rect id="path-1" x="0" y="0" width="86" height="120" rx="10"></rect>
        <filter x="-9.9%" y="-5.4%" width="119.8%" height="114.2%" filterUnits="objectBoundingBox" id="filter-3">
            <feOffset dx="0" dy="2" in="SourceAlpha" result="shadowOffsetOuter1"></feOffset>
            <feGaussianBlur stdDeviation="2.5" in="shadowOffsetOuter1" result="shadowBlurOuter1"></feGaussianBlur>
            <feColorMatrix values="0 0 0 0 0   0 0 0 0 0   0 0 0 0 0  0 0 0 0.05 0" type="matrix" in="shadowBlurOuter1"></feColorMatrix>
        </filter>
    </defs>
    <g id="切图" stroke="none" stroke-width="1" fill="none" fill-rule="evenodd">
        <g transform="translate(-650.000000, -427.000000)" id="workbench_Shortcut_Addstaff_bg">
            <g transform="translate(655.000000, 430.000000)">
                <g id="icon_导出excel">
                    <mask id="mask-2" fill="white">
                        <use xlink:href="#path-1"></use>
                    </mask>
                    <g id="蒙版">
                        <use fill="black" fill-opacity="1" filter="url(#filter-3)" xlink:href="#path-1"></use>
                        <use fill="#FFFFFF" fill-rule="evenodd" xlink:href="#path-1"></use>
                    </g>
                    <g opacity="0.1" mask="url(#mask-2)" id="编组">
                        <g transform="translate(53.000000, 84.000000)">
                            <g transform="translate(0.900000, 0.060000)">
                                <g>
                                    <path d="M8.48120797,23.8950948 C7.62878104,23.8950948 -0.109437358,27.003341 0.00117432491,31.5472694 C7.15953438,31.5472694 11.4271252,31.5472694 12.8039468,31.5472694 C14.8111002,31.5472694 24.628554,32.2509132 26.4095238,31.5472694 C25.8427862,29.9317974 24.7370827,28.4345774 23.0924134,27.0556094 C19.2461734,23.8307413 17.4292915,23.8950948 16.971207,23.8950948 L8.48120797,23.8950948 Z" id="Fill-17" fill="#F6E62E"></path>
                                    <path d="M10.5638095,23.180673 C10.5638095,24.3082083 11.4507757,25.2225 12.5449025,25.2225 C13.638272,25.2225 14.5252381,24.3082083 14.5252381,23.180673 L14.5252381,16.6451081 C14.5252381,15.5167917 13.638272,14.6025 12.5449025,14.6025 C11.4507757,14.6025 10.5638095,15.5167917 10.5638095,16.6451081 L10.5638095,23.180673 Z" id="Fill-21" fill="#FFFFFF"></path>
                                    <path d="M8.58272165,11.9475 C11.1358273,11.9475 13.2047619,9.86769325 13.2047619,7.30143057 C13.2047619,4.73516789 11.1358273,2.655 8.58272165,2.655 C6.03036318,2.655 3.96142857,4.73516789 3.96142857,7.30143057 C3.96142857,9.86769325 6.03036318,11.9475 8.58272165,11.9475 Z" id="Fill-23" fill="#220EDB"></path>
                                    <path d="M5.28173798,15.93 C6.74039094,15.93 7.92285714,14.4447445 7.92285714,12.6116531 C7.92285714,10.7781585 6.74039094,9.2925 5.28173798,9.2925 C3.82375215,9.2925 2.64095238,10.7781585 2.64095238,12.6116531 C2.64095238,14.4447445 3.82375215,15.93 5.28173798,15.93 Z" id="Fill-25" fill="#220EDB"></path>
                                    <path d="M7.92302392,13.275 C9.38134332,13.275 10.5638095,12.0861507 10.5638095,10.62 C10.5638095,9.15352684 9.38134332,7.965 7.92302392,7.965 C6.46437097,7.965 5.28190476,9.15352684 5.28190476,10.62 C5.28190476,12.0861507 6.46437097,13.275 7.92302392,13.275 Z" id="Fill-27" fill="#FFFFFF"></path>
                                    <path d="M19.8069761,15.93 C21.2657784,15.93 22.4480952,14.4447445 22.4480952,12.6116531 C22.4480952,10.7781585 21.2657784,9.2925 19.8069761,9.2925 C18.3485074,9.2925 17.1661905,10.7781585 17.1661905,12.6116531 C17.1661905,14.4447445 18.3485074,15.93 19.8069761,15.93 Z" id="Fill-29" fill="#220EDB"></path>
                                    <path d="M6.60238095,13.2755372 C6.60238095,16.94072 9.55767721,19.9125 13.2042008,19.9125 C16.8510985,19.9125 19.8071429,16.94072 19.8071429,13.2755372 L19.8071429,7.96521488 C19.8071429,4.29928001 16.8510985,1.3275 13.2042008,1.3275 C9.55767721,1.3275 6.60238095,4.29928001 6.60238095,7.96521488 L6.60238095,13.2755372 Z" id="Fill-31" fill="#FFFFFF"></path>
                                    <path d="M13.6903053,7.46928687 C16.2425268,9.90023771 20.3805305,9.90023771 22.9331188,7.46928687 L23.7685714,6.67515763 L19.1543194,2.28141837 C17.5567961,0.760589247 15.4635782,0 13.3699934,0 C11.4209709,0 9.47158153,0.659270514 7.92285714,1.97746217 L13.6903053,7.46928687 Z" id="Fill-33" fill="#220EDB"></path>
                                </g>
                            </g>
                        </g>
                    </g>
                </g>
            </g>
        </g>
    </g>
</svg>