<?xml version="1.0" encoding="UTF-8"?>
<svg width="50px" height="50px" viewBox="0 0 50 50" version="1.1" xmlns="http://www.w3.org/2000/svg" xmlns:xlink="http://www.w3.org/1999/xlink">
    <!-- Generator: Sketch 58 (84663) - https://sketch.com -->
    <title>icon__ic_new organization</title>
    <desc>Created with Sketch.</desc>
    <g id="icon__ic_new-organization" stroke="none" stroke-width="1" fill="none" fill-rule="evenodd">
        <path d="M28,8 C29.1045695,8 30,8.8954305 30,10 L30,16 C30,17.1045695 29.1045695,18 28,18 L26.3,18 L26.3,22.117 L37,22.1176471 C37.5522847,22.1176471 38,22.5653623 38,23.1176471 L38,32 L40,32 C41.1045695,32 42,32.8954305 42,34 L42,40 C42,41.1045695 41.1045695,42 40,42 L34,42 C32.8954305,42 32,41.1045695 32,40 L32,34 C32,32.8954305 32.8954305,32 34,32 L35.4,32 L35.4,24.823 L26.3,24.823 L26.3,32 L28,32 C29.1045695,32 30,32.8954305 30,34 L30,40 C30,41.1045695 29.1045695,42 28,42 L22,42 C20.8954305,42 20,41.1045695 20,40 L20,34 C20,32.8954305 20.8954305,32 22,32 L23.7,32 L23.7,24.823 L14.6,24.823 L14.6,32 L16,32 C17.1045695,32 18,32.8954305 18,34 L18,40 C18,41.1045695 17.1045695,42 16,42 L10,42 C8.8954305,42 8,41.1045695 8,40 L8,34 C8,32.8954305 8.8954305,32 10,32 L12,32 L12,23.1176471 C12,22.5653623 12.4477153,22.1176471 13,22.1176471 L23.7,22.117 L23.7,18 L22,18 C20.8954305,18 20,17.1045695 20,16 L20,10 C20,8.8954305 20.8954305,8 22,8 L28,8 Z" id="形状结合" fill="#220EDB"></path>
    </g>
</svg>