<?xml version="1.0" encoding="UTF-8"?>
<svg width="338px" height="336px" viewBox="0 0 338 336" version="1.1" xmlns="http://www.w3.org/2000/svg" xmlns:xlink="http://www.w3.org/1999/xlink">
    <!-- Generator: Sketch 58 (84663) - https://sketch.com -->
    <title>workbench_illustration_bg</title>
    <desc>Created with Sketch.</desc>
    <defs>
        <polygon id="path-1" points="0.500916667 0.00923480209 129.73216 0.00923480209 129.73216 87 0.500916667 87"></polygon>
        <polygon id="path-3" points="0.181961255 0.0983111063 21.7713952 0.0983111063 21.7713952 69.5215199 0.181961255 69.5215199"></polygon>
        <polygon id="path-5" points="0.00222008101 0.0983111063 17.0396341 0.0983111063 17.0396341 69.5215199 0.00222008101 69.5215199"></polygon>
    </defs>
    <g id="切图" stroke="none" stroke-width="1" fill="none" fill-rule="evenodd">
        <g transform="translate(-1023.000000, -61.000000)" id="workbench_illustration_bg">
            <g transform="translate(1023.000000, 61.000000)">
                <ellipse id="椭圆形" fill="#FFFFFF" cx="54.5" cy="103.5" rx="152.5" ry="164.5"></ellipse>
                <ellipse id="椭圆形" fill="#FFE0DC" cx="155.5" cy="254.179372" rx="172.5" ry="170.179372"></ellipse>
                <g id="编组" transform="translate(1.000000, 65.000000)">
                    <path d="M114.568454,93.6158834 C113.963686,98.0259506 113.282835,102.680968 111.608993,106.816924 C111.183705,107.806444 110.341907,111.038419 109.217235,111.481662 C108.082807,111.953093 106.228511,109.559001 105.292097,108.758054 C102.720858,106.563227 99.8365064,104.800949 97.2555137,102.576961 C93.9926941,99.7882279 90.2772742,97.0928088 86.6076996,94.8785409 C86.2487406,94.6617799 85.8702731,94.4450188 85.4830266,94.2467261 C84.1027906,93.5215972 82.5889203,92.9471317 81.1238217,92.7964682 C79.1856386,92.5981755 77.3030551,93.1347321 75.866244,95.0671134 C73.4930183,98.213551 74.7503499,104.781509 75.2887883,108.362441 C75.3365845,108.655019 75.3736509,108.946626 75.4214471,109.248925 C76.0935196,113.790216 76.8016831,118.538547 75.6019019,122.996243 C75.0244463,125.192043 73.7290728,127.123452 71.9801235,128.528025 C71.0242003,129.319251 69.9375692,129.941346 68.7455914,130.373896 C67.6023853,130.78895 66.5235577,131.033899 65.5022805,131.119437 C63.1758755,131.335226 61.0767462,130.779229 59.0059044,129.733333 C57.9192733,129.186084 56.8404457,128.508584 55.7352814,127.735826 C55.2056219,127.368402 54.7042499,126.982509 54.2214111,126.567455 C52.1886111,124.861555 50.5245244,122.807671 49.0682046,120.593403 C48.547324,119.829393 48.0654607,119.048859 47.603106,118.24694 C46.543787,116.465222 45.5781095,114.619351 44.6046285,112.819165 C43.8769563,111.462221 43.1775717,110.0489 42.5054991,108.598642 C41.5417724,106.535038 40.653154,104.405336 39.8201352,102.257166 C38.8739663,99.8446052 38.0146109,97.4135763 37.2293882,95.0573931 C35.943769,91.1284771 34.9029832,87.0109887 33.9295022,82.9119688 C33.6651602,81.8184432 33.4095971,80.7161694 33.1540339,79.6226438 C36.5865786,80.9329304 40.0854527,82.0449245 43.7725851,82.9119688 C48.0381486,83.9199564 53.6351766,84.1746263 51.639443,78.0868478 C50.5342787,74.6662997 46.9310334,72.0564186 44.0466814,69.9840661 C39.8396439,66.9960681 35.4901932,64.000294 30.7993414,61.8326833 C30.2599276,61.5974538 29.7302681,61.3427838 29.2201172,61.0599252 C29.0601464,59.98584 28.9089545,58.9020346 28.7860501,57.8182293 C28.2749238,53.2672187 28.0486236,48.7541171 27.9910731,44.2594838 C31.0646589,45.1829055 34.0241191,46.7468901 35.5555471,48.0474565 C37.8721978,50.0070544 41.3232757,54.1439833 44.5958496,53.3527567 C49.2574384,52.2213222 46.8832373,48.0192679 45.0962461,45.4084147 C42.6186492,41.8469234 38.8368999,40.0185485 35.4141095,37.5408625 C34.2035986,36.664098 33.002842,35.8544031 31.7737978,35.1001134 C29.4844593,33.6867923 28.0574025,31.2275747 28.1042232,28.5515961 L28.1139775,28.504939 C28.2368819,22.6805786 28.2846781,15.1143535 24.8053127,10.0355346 C24.435624,9.47953756 24.0103357,8.9517292 23.5470056,8.46280176 C21.8165895,6.64317516 19.8784064,5.34358073 17.7500141,4.16548915 C18.960525,4.28796402 20.1807902,4.43862754 21.4000801,4.62719996 C31.8489061,6.25728212 42.3455283,10.4505883 51.5926223,15.349583 C51.6218852,15.3690234 51.6589516,15.3884639 51.6969935,15.4069323 C54.108261,16.6977786 55.4982514,19.2979394 55.4036345,22.0215472 C55.375347,22.8127737 55.3470595,23.6137205 55.3568138,24.4341077 C55.3568138,27.8449355 54.6466994,33.7431696 57.2569551,36.362771 C60.3305408,39.4158944 63.4129055,33.4894717 64.272261,30.9359679 C65.0204172,28.7498887 64.6887704,26.5161804 64.6039078,24.2824721 C68.5192913,27.1285548 72.6326874,29.5877723 76.4524785,32.6311756 C80.3854198,35.7980257 84.3485994,39.0669383 88.1391276,42.3932001 C87.3734136,46.4261226 85.8419856,50.3939195 84.7075583,54.2752063 C82.8161959,60.6740321 78.872525,67.6181627 81.2837925,74.42135 C82.5616082,78.0120021 84.4519952,79.9628517 88.2522777,78.6331246 C91.8087022,77.3899075 93.5381429,74.5632653 94.7301206,71.1893743 C96.4800454,66.2709392 96.4039617,61.4749789 96.6497705,56.3582511 C96.7356085,54.5677852 96.678058,52.7957877 96.5746623,51.0344825 C98.2094861,52.2028538 99.8179732,53.4276025 101.415731,54.6717916 C104.961425,57.4508047 110.029769,59.598975 112.555162,63.3869477 C114.370441,66.1008352 114.946921,70.4729936 115.353676,73.6680324 C116.242295,80.4994083 115.48536,86.8321366 114.568454,93.6158834" id="Fill-1" fill="#85CACD" transform="translate(66.750014, 67.665489) rotate(4.000000) translate(-66.750014, -67.665489) "></path>
                    <path d="M97.2824243,142.864254 L97.2824243,142.911611 C97.2824243,145.131621 93.9386565,145.0659 93.779109,142.939639 C93.7704589,142.883583 93.7704589,142.836226 93.7704589,142.78017 C93.7608476,138.39524 93.2110818,133.926226 92.325882,129.447548 C91.4041592,124.782338 90.1085573,120.116162 88.683203,115.515707 C86.9598986,109.932339 85.0309127,104.461083 83.3441312,99.242079 C82.515638,96.7031303 81.6477385,94.1825447 80.7260158,91.6812887 C76.9343618,81.2906384 72.3593876,71.2382569 67.0212771,61.5222112 C60.4240874,49.4924071 53.3703615,37.3872174 44.3424766,27.0255616 C40.8949068,23.062018 36.8793098,19.7266879 33.0972671,16.1101114 C30.5992927,13.7209674 28.1407247,11.2757674 25.2333094,9.39209356 C24.8690415,8.84023222 24.4509504,8.31543238 23.993453,7.82832534 C22.2893712,6.02003712 20.3786467,4.72688392 18.2824243,3.55550747 C19.4751854,3.67728423 20.6775578,3.82708898 21.8789691,4.01458652 C25.252532,5.41018684 28.2522157,7.18078226 29.6679587,8.29610273 C41.3053089,17.411963 51.0694187,28.7304362 59.0823513,41.1255706 C68.8560724,56.2655144 77.3620642,72.3806389 83.6142085,89.3201726 C84.0707448,90.575633 84.5465036,91.8407583 85.0213014,93.1242466 C87.5279259,99.897354 90.1643028,107.092814 92.3441434,114.419716 C93.0717181,116.80886 93.7329748,119.216367 94.329836,121.624841 C96.1088858,128.77391 97.272813,135.940375 97.2824243,142.864254" id="Fill-3" fill="#D3F7F4" transform="translate(57.782424, 74.055507) rotate(4.000000) translate(-57.782424, -74.055507) "></path>
                    <path d="M103.619586,115.503355 C100.810882,111.182431 96.0265985,116.903868 94.8800203,119.816045 C92.6512043,125.488904 92.279185,138.314999 92.9390862,141.83563 C92.11256,140.897015 91.2555134,139.98063 90.3662966,139.079889 C88.7206682,137.418375 87.0766895,135.750274 85.4401347,134.079704 C87.47428,131.078605 92.1282327,124.910091 91.131782,113.928293 C90.9635072,112.084819 90.5758153,109.647713 88.7297419,108.738738 C86.1635514,107.476548 85.6356305,110.442243 85.3535227,112.32853 C84.8717949,115.555226 83.9817533,126.718161 83.2797834,131.886308 C79.9885266,128.550931 76.7013941,125.208143 73.3969392,121.889232 C76.1726483,115.453954 79.4993749,107.623103 77.2647847,100.521738 C75.7998042,95.8731223 71.8948393,99.1805061 70.7944541,102.021052 C68.8246493,107.110982 69.1611989,113.370887 70.4389324,118.929301 C68.8766165,117.373175 67.3093513,115.825284 65.7396115,114.283979 C65.455854,114.004041 65.1745712,113.73069 64.8908137,113.451575 C66.5281934,110.407662 68.4270589,107.651097 68.946731,104.11153 C69.4565046,100.618893 68.2785811,97.2629316 66.3153753,94.4125052 C65.4443058,93.1560781 64.568287,91.5126781 62.9243083,91.1339386 C60.6212534,90.6012332 61.3223984,93.207949 61.5954325,94.7739545 C62.1711962,98.1093321 62.5646622,101.545981 62.7725311,104.910176 C62.8822396,106.766 63.0480398,108.503261 63.3227236,110.287454 C63.393663,110.746881 63.3953128,111.378388 63.3994372,112.022245 C61.1401007,109.855196 58.8230228,107.724375 56.466351,105.644601 C57.2780293,99.7774325 58.2101397,92.676067 54.8017504,87.4000612 C52.5580865,83.9444749 50.1222265,87.511213 49.8623904,90.0792314 C49.4631503,94.0559961 50.6732439,98.3596295 52.4962208,102.205482 C51.4560517,101.322031 50.4035094,100.442697 49.3493173,99.5757126 C48.1408734,92.7419347 46.755081,84.2557 41.0147661,79.6268447 C37.364688,76.6817335 35.9731215,81.4991352 36.5942534,84.4071958 C37.2096112,87.2592689 38.5714822,90.0133637 40.3325933,92.5451549 C39.8384923,92.1762955 39.3386172,91.8099062 38.8412168,91.448457 C37.6467957,90.5765328 36.4276284,89.7614196 35.1944382,88.9833569 C34.9642977,83.0536138 34.6632178,75.8435665 30.3548883,71.2229446 C27.5420597,68.2053789 25.765276,72.1500331 25.9599468,74.7238149 C26.2701003,78.8002046 28.3075451,82.9284651 30.8539385,86.444979 C28.9064053,85.3738049 26.9258771,84.3759086 24.9247269,83.4101229 C23.9959161,78.6536489 22.8328403,72.9066887 18.7901211,69.7293937 C16.1307195,67.6455031 15.1928351,71.0541586 15.673738,73.111702 C16.3740581,76.0938639 18.2448778,78.92947 20.4769933,81.3245857 C18.2679743,80.2986956 16.0581304,79.2868025 13.8532358,78.2345654 C12.7215053,76.3598049 11.3744822,74.4776343 10.1775865,72.8679914 C8.75549958,70.9668838 6.88220526,69.0649529 4.32178889,69.0023785 C0.951343896,68.9159271 0.0365559608,71.1974209 1.62279329,74.0042099 C2.34373527,75.2836907 3.39545269,76.2017223 4.61791952,76.9081538 C3.29399289,77.003662 2.03688125,77.3659346 1.14848936,78.0237886 C0.252673579,78.6964629 -0.0682033429,79.418538 0.0118096686,80.1002691 C0.129766995,81.2587179 1.38440401,82.2994282 2.85268401,82.7530922 C5.44774519,83.5550319 8.29191904,82.8576573 10.9249245,82.6394704 C11.7440268,82.5736026 12.5697281,82.6048898 13.4003786,82.6732276 C14.5387081,82.7613257 15.6828116,82.9054114 16.7988694,82.925995 C18.256426,83.6019627 19.7131578,84.2779304 21.1674149,84.9613082 C21.1690646,84.9621315 21.1707144,84.9629548 21.173189,84.9637782 C17.2500768,84.2812238 12.8625592,84.2721669 9.38653003,85.8398191 C7.45796899,86.7084499 5.31576496,89.5308825 8.59217405,90.363286 C13.8482865,91.7004011 19.4195018,88.7692868 23.8928065,86.5553074 L23.9678703,86.3017166 C24.6277714,86.6228218 25.2901472,86.9505138 25.9533478,87.2831459 C25.9912921,87.3020829 26.0267618,87.3160798 26.0564573,87.3317234 C29.422778,89.0344044 32.719809,90.8778777 35.8906339,93.0309294 C35.8939334,93.0333995 35.896408,93.0350462 35.8988826,93.0375162 C34.5328873,92.8843737 33.1767905,92.8736702 31.8660619,93.0539831 C29.4813442,93.3816751 26.2329809,95.7710273 29.5374358,97.7338859 C33.7855493,100.258267 39.1373474,99.8581205 43.9752475,99.0981715 C47.9074334,102.207129 51.7612559,105.448645 55.4987709,108.794726 C51.2374594,106.749533 46.2832517,105.338316 41.8181957,105.95171 C39.2619037,106.303279 35.7784507,108.86471 39.3221197,110.970008 C45.0079928,114.3482 52.5407641,112.843122 58.5409151,111.796648 L58.6341262,111.652562 L58.634951,111.652562 C60.3671915,113.249855 62.0705613,114.873495 63.747535,116.512778 C64.5707617,117.321305 65.3931634,118.129831 66.2048418,118.943298 C66.2064916,118.944944 66.2081413,118.947414 66.2097911,118.949061 C60.3894631,115.992423 53.6642458,113.841018 47.7061635,114.424771 C44.3051981,114.75905 39.780751,117.981629 44.6301994,120.964614 C52.3832127,125.733438 62.3320471,124.155082 70.2871551,123.078145 C70.28798,123.079792 70.2904547,123.081438 70.2912795,123.083085 C72.5844359,125.414803 74.8577953,127.765458 77.1410532,130.105409 C71.1508007,129.230192 58.8535433,126.681934 54.817423,126.187102 C52.928456,125.956565 48.4419533,125.914574 49.1694943,129.071286 C49.5736837,130.820074 52.8377196,132.626497 54.4404545,133.198723 C58.014644,134.47738 71.6407773,134.715328 80.6838974,133.707551 L80.6880218,133.711668 C82.3196273,135.365771 83.9669055,137.007525 85.6364553,138.623754 C86.252638,139.222328 86.8547978,139.830781 87.4454093,140.443351 C78.6934706,138.373457 61.3471447,135.474453 56.9926221,136.391662 C54.7770041,136.858499 51.2754037,138.184087 51.5038945,140.962059 C51.7414589,143.838009 56.078659,144.151704 58.2439596,144.850726 C63.2319872,146.461192 79.698995,145.505286 82.7163928,144.891893 C85.0540926,144.416822 87.3802441,143.418102 89.6519537,142.82694 C89.6742253,142.854933 89.6989716,142.88128 89.7195935,142.909274 C90.9907281,144.339427 92.2032964,145.800868 93.3721463,147.282069 C93.2327422,147.294419 93.086739,147.310062 92.9415608,147.324883 C85.6001608,147.962976 69.9299837,148.3623 64.9180346,148.910649 C62.592708,149.169179 57.2128641,150.372089 58.969026,153.951177 C59.9448548,155.926386 64.3628928,157.17458 66.4448808,157.40841 C70.7680581,157.905712 85.3172282,154.857682 95.8055317,151.409506 C96.0002025,151.347755 96.1857997,151.28271 96.3722218,151.217666 C100.015701,156.16845 103.406768,161.293783 107.207798,166.382889 C108.350252,167.922548 110.855402,166.280794 109.704699,164.737019 C104.217621,157.38618 99.6939991,149.697768 93.7779855,142.795652 C100.646731,134.564655 104.889896,117.459627 103.619586,115.503355" id="Fill-5" fill="#220EDB"></path>
                    <path d="M127.783648,187.933043 C124.974944,183.612119 120.190661,189.333555 119.044083,192.245733 C116.815267,197.918592 116.443248,210.744687 117.103149,214.265318 C116.276622,213.326702 115.419576,212.410317 114.530359,211.509576 C112.884731,209.848062 111.240752,208.179962 109.604197,206.509391 C111.638342,203.508293 116.292295,197.339779 115.295844,186.35798 C115.12757,184.514507 114.739878,182.077401 112.893804,181.168426 C110.327614,179.906235 109.799693,182.87193 109.517585,184.758218 C109.035857,187.984913 108.145816,199.147848 107.443846,204.315996 C104.152589,200.980618 100.865457,197.63783 97.5610017,194.31892 C100.336711,187.883642 103.663437,180.052791 101.428847,172.951425 C99.9638667,168.30281 96.0589018,171.610194 94.9585166,174.45074 C92.9887118,179.540669 93.3252614,185.800575 94.6029949,191.358988 C93.040679,189.802863 91.4734138,188.254971 89.903674,186.713666 C89.6199165,186.433728 89.3386337,186.160377 89.0548762,185.881262 C90.6922559,182.83735 92.5911214,180.080785 93.1107935,176.541217 C93.6205671,173.04858 92.4426436,169.692619 90.4794378,166.842193 C89.6083683,165.585766 88.7323495,163.942366 87.0883708,163.563626 C84.7853159,163.030921 85.4864609,165.637636 85.759495,167.203642 C86.3352587,170.53902 86.7287247,173.975669 86.9365936,177.339864 C87.0463021,179.195687 87.2121023,180.932949 87.4867861,182.717141 C87.5577255,183.176568 87.5593753,183.808075 87.5634997,184.451933 C85.3041632,182.284884 82.9870853,180.154063 80.6304135,178.074289 C81.4420918,172.20712 82.3742022,165.105754 78.9658129,159.829749 C76.722149,156.374162 74.286289,159.9409 74.0264529,162.508919 C73.6272128,166.485684 74.8373064,170.789317 76.6602833,174.63517 C75.6201142,173.751718 74.5675719,172.872384 73.5133798,172.0054 C72.3049359,165.171622 70.9191435,156.685388 65.1788286,152.056532 C61.5287505,149.111421 60.137184,153.928823 60.7583159,156.836883 C61.3736737,159.688956 62.7355447,162.443051 64.4966558,164.974842 C64.0025548,164.605983 63.5026797,164.239594 63.0052793,163.878145 C61.8108582,163.00622 60.5916909,162.191107 59.3585007,161.413044 C59.1283602,155.483301 58.8272803,148.273254 54.5189508,143.652632 C51.7061222,140.635066 49.9293385,144.579721 50.1240093,147.153502 C50.4341628,151.229892 52.4716076,155.358153 55.018001,158.874666 C53.0704678,157.803492 51.0899396,156.805596 49.0887894,155.83981 C48.1599786,151.083336 46.9969028,145.336376 42.9541836,142.159081 C40.294782,140.075191 39.3568976,143.483846 39.8378005,145.54139 C40.5381206,148.523551 42.4089403,151.359158 44.6410558,153.754273 C42.4320368,152.728383 40.2221929,151.71649 38.0172983,150.664253 C36.8855678,148.789492 35.5385447,146.907322 34.341649,145.297679 C32.9195621,143.396571 31.0462678,141.49464 28.4858514,141.432066 C25.1154064,141.345615 24.2006185,143.627108 25.7868558,146.433897 C26.5077978,147.713378 27.5595152,148.63141 28.781982,149.337841 C27.4580554,149.43335 26.2009437,149.795622 25.3125519,150.453476 C24.4167361,151.12615 24.0958592,151.848225 24.1758722,152.529957 C24.2938295,153.688405 25.5484665,154.729116 27.0167465,155.18278 C29.6118077,155.984719 32.4559815,155.287345 35.088987,155.069158 C35.9080893,155.00329 36.7337906,155.034577 37.5644411,155.102915 C38.7027706,155.191013 39.8468741,155.335099 40.9629319,155.355683 C42.4204885,156.03165 43.8772203,156.707618 45.3314774,157.390996 C45.3331271,157.391819 45.3347769,157.392642 45.3372515,157.393466 C41.4141393,156.710911 37.0266217,156.701854 33.5505925,158.269507 C31.6220315,159.138137 29.4798275,161.96057 32.7562366,162.792974 C38.012349,164.130089 43.5835643,161.198974 48.056869,158.984995 L48.1319328,158.731404 C48.7918339,159.052509 49.4542097,159.380201 50.1174103,159.712833 C50.1553546,159.73177 50.1908243,159.745767 50.2205198,159.761411 C53.5868405,161.464092 56.8838715,163.307565 60.0546964,165.460617 C60.0579959,165.463087 60.0604705,165.464734 60.0629451,165.467204 C58.6969498,165.314061 57.340853,165.303358 56.0301244,165.483671 C53.6454067,165.811363 50.3970434,168.200715 53.7014983,170.163573 C57.9496118,172.687955 63.3014099,172.287808 68.13931,171.527859 C72.0714959,174.636816 75.9253184,177.878332 79.6628334,181.224413 C75.4015219,179.17922 70.4473142,177.768004 65.9822582,178.381397 C63.4259662,178.732966 59.9425132,181.294398 63.4861822,183.399695 C69.1720553,186.777887 76.7048266,185.272809 82.7049776,184.226336 L82.7981887,184.08225 L82.7990135,184.08225 C84.531254,185.679543 86.2346238,187.303182 87.9115975,188.942466 C88.7348242,189.750992 89.5572259,190.559519 90.3689043,191.372985 C90.3705541,191.374632 90.3722038,191.377102 90.3738536,191.378749 C84.5535256,188.42211 77.8283083,186.270705 71.870226,186.854458 C68.4692606,187.188737 63.9448135,190.411316 68.7942619,193.394301 C76.5472752,198.163126 86.4961096,196.58477 94.4512176,195.507832 C94.4520425,195.509479 94.4545172,195.511126 94.455342,195.512773 C96.7484984,197.84449 99.0218578,200.195145 101.305116,202.535097 C95.3148632,201.659879 83.0176058,199.111621 78.9814855,198.61679 C77.0925185,198.386253 72.6060158,198.344262 73.3335568,201.500973 C73.7377462,203.249762 77.0017821,205.056184 78.604517,205.62841 C82.1787065,206.907068 95.8048398,207.145015 104.84796,206.137239 L104.852084,206.141355 C106.48369,207.795459 108.130968,209.437212 109.800518,211.053442 C110.416701,211.652015 111.01886,212.260468 111.609472,212.873038 C102.857533,210.803145 85.5112072,207.904141 81.1566846,208.821349 C78.9410666,209.288187 75.4394662,210.613775 75.667957,213.391747 C75.9055214,216.267697 80.2427215,216.581392 82.4080221,217.280413 C87.3960497,218.890879 103.863057,217.934974 106.880455,217.321581 C109.218155,216.84651 111.544307,215.84779 113.816016,215.256627 C113.838288,215.284621 113.863034,215.310968 113.883656,215.338962 C115.154791,216.769115 116.367359,218.230555 117.536209,219.711756 C117.396805,219.724106 117.250802,219.73975 117.105623,219.75457 C109.764223,220.392664 94.0940462,220.791987 89.0820971,221.340336 C86.7567705,221.598867 81.3769266,222.801776 83.1330885,226.380865 C84.1089173,228.356073 88.5269553,229.604267 90.6089433,229.838098 C94.9321206,230.335399 109.481291,227.287369 119.969594,223.839193 C120.164265,223.777442 120.349862,223.712398 120.536284,223.647354 C124.179763,228.598137 127.57083,233.723471 131.371861,238.812577 C132.514315,240.352235 135.019464,238.710482 133.868762,237.166707 C128.381684,229.815867 123.858062,222.127455 117.942048,215.22534 C124.810794,206.994343 129.053958,189.889314 127.783648,187.933043" id="Fill-5" fill="#220EDB" opacity="0.503534226" transform="translate(79.164062, 190.429688) rotate(-28.000000) translate(-79.164062, -190.429688) "></path>
                    <g transform="translate(8.000000, 134.000000)">
                        <mask id="mask-2" fill="white">
                            <use xlink:href="#path-1"></use>
                        </mask>
                        <g id="Clip-8"></g>
                        <path d="M124.987583,45.60975 C121.79675,45.2366538 118.580917,45.3746827 115.37425,44.9764904 C111.32675,44.4988269 106.973417,44.3365385 102.90175,44.5314519 C102.49675,44.5473462 102.085083,44.5799712 101.673417,44.6284904 C100.203417,44.7824135 98.70925,45.1228846 97.4725833,45.7879327 C95.8409167,46.6637885 94.6534167,48.0909231 94.5409167,50.3863846 C94.3459167,54.1416058 98.8300833,58.6823365 101.148417,61.2362885 C104.258417,64.6828269 107.65175,68.2347692 109.170083,72.6792981 C110.27675,75.8581442 109.68675,79.4100865 107.69175,82.1748462 C104.685917,86.3265865 100.873417,87.0895096 96.0425833,86.9924712 C89.98425,86.8870673 84.57175,83.8454135 79.3525833,81.0722885 C74.12675,78.2907981 68.8025833,74.5439423 64.1175833,70.9033269 C60.1834167,67.8215192 56.4109167,64.2863077 52.7100833,60.8230385 C56.10425,60.0442212 59.4559167,59.0629615 62.81675,57.7989519 C66.7100833,56.3308269 71.2500833,53.5568654 66.4525833,49.7865865 C63.76175,47.6534135 59.5450833,47.5078558 56.1684167,47.3940865 C51.2650833,47.2560577 46.2475833,47.1991731 41.40925,47.969625 C40.8600833,48.0675 40.3025833,48.1486442 39.7534167,48.1887981 C39.0509167,47.425875 38.36425,46.6478942 37.6850833,45.8531827 C34.8650833,42.5120481 32.29675,39.0571442 29.8650833,35.5219327 C32.7734167,34.6134519 35.9325833,34.288875 37.8309167,34.5080481 C40.6909167,34.832625 45.6100833,36.2756538 47.76675,33.90825 C50.83675,30.5344904 46.7325833,28.4582019 43.9375833,27.33975 C40.1000833,25.8314712 36.1500833,26.3911154 32.1350833,26.2447212 C30.72175,26.1953654 29.3400833,26.1878365 27.9750833,26.2363558 C25.42175,26.3333942 22.9900833,25.1496923 21.60925,22.9922596 L21.5850833,22.9604712 C18.5875833,18.2733462 14.6050833,12.2318654 9.16841667,10.0501731 C8.57841667,9.81510577 7.97341667,9.62019231 7.35091667,9.483 C5.01591667,8.95514423 2.80341667,8.95514423 0.500916667,9.15005769 C1.52591667,8.59877885 2.57675,8.07092308 3.64258333,7.57652885 L3.65091667,7.57652885 C12.73925,3.31938462 23.21675,1.07327885 33.0884167,0.0510288462 C33.1284167,0.0510288462 33.1609167,0.0435 33.20175,0.0435 C35.78675,-0.225028846 38.26675,1.10506731 39.63175,3.31938462 C40.0284167,3.96017308 40.4400833,4.60932692 40.8759167,5.25764423 C42.6934167,7.96551923 45.2625833,13.0182115 48.71175,13.7075192 C50.4000833,14.039625 51.25675,13.1236154 51.6284167,11.7608942 C52.1525833,9.87199038 51.74925,7.123125 51.3534167,5.67089423 C51.0625833,4.60096154 50.5534167,3.65985577 49.9559167,2.76726923 C49.36675,1.89977885 48.6959167,1.07327885 48.08175,0.221682692 C48.6550833,0.245942308 49.2209167,0.261836538 49.79425,0.270201923 C53.80925,0.351346154 57.8000833,0.213317308 61.84675,0.553788462 C62.5334167,0.610673077 63.2209167,0.675086538 63.9159167,0.741173077 C67.5834167,1.07327885 71.2825833,1.45390385 74.92675,1.91650962 C75.3625833,1.96502885 75.7984167,2.02191346 76.22675,2.07796154 C76.4859167,2.68696154 76.7275833,3.30265385 76.9450833,3.92754808 C77.2609167,4.77077885 77.5434167,5.62990385 77.8100833,6.49070192 C78.2225833,7.80406731 78.5934167,9.12579808 78.9734167,10.4391635 C79.2559167,11.4204231 79.53925,12.3857885 79.8375833,13.3344231 C79.9425833,13.6673654 80.0475833,14.0153654 80.14425,14.3566731 C80.6784167,16.2296827 81.12175,18.2164615 81.6559167,20.1873462 C82.79425,24.3876058 84.2975833,28.4832981 87.8509167,31.135125 C90.7600833,33.29925 93.2800833,33.843 95.5659167,30.7611923 C96.0425833,30.1212404 96.4150833,29.4645577 96.6809167,28.7911442 C97.2709167,27.3146538 97.39175,25.77375 97.2300833,24.1935288 C97.14175,23.2850481 96.96425,22.3598365 96.72175,21.4195673 C95.4850833,16.5944135 92.87675,12.8232981 90.3475833,8.63893269 C89.8300833,7.77980769 89.2809167,6.95163462 88.7084167,6.14939423 C88.3034167,5.57385577 87.8834167,5.01421154 87.4634167,4.45456731 C88.1909167,4.47882692 88.9184167,4.51061538 89.6525833,4.55160577 C90.83175,4.60932692 92.01925,4.68210577 93.2075833,4.77077885 C94.0150833,4.82766346 94.8559167,4.84439423 95.71175,4.83602885 C96.7050833,4.82766346 97.7234167,4.79503846 98.7484167,4.77077885 C101.487583,4.72225962 104.250083,4.77914423 106.60925,5.76040385 C109.485083,6.95163462 112.255917,10.1154231 114.275083,12.4259423 C118.597583,17.3807596 121.368417,22.7981827 124.24425,28.6690096 C126.118417,32.4970096 128.04925,36.5433462 128.92925,40.7118173 C129.12425,41.7257019 130.165917,44.7338942 129.527583,45.6908942 C128.88175,46.6637885 126.150917,45.7477788 124.987583,45.60975 Z" id="Fill-7" fill="#D3F7F4" mask="url(#mask-2)"></path>
                    </g>
                    <path d="M143.827139,214.246008 C136.048041,202.740285 123.045619,193.778562 112.201926,185.349226 C110.180829,183.779471 108.134707,182.250413 106.06523,180.752086 C97.4778597,174.552799 88.4450636,169.037062 78.9851929,164.19823 C75.7913084,162.563691 72.5640586,160.945764 69.3051118,159.383484 C66.071189,157.829509 62.7963938,156.340318 59.4899016,154.954947 C53.9095705,152.612773 48.217466,150.558802 42.3952371,149.013133 C37.519746,147.724937 32.5224719,147.234078 27.5568948,146.388569 C24.2829337,145.832926 21.0081385,145.221635 17.6766225,145.268977 C17.0860583,145.03642 16.4796456,144.84207 15.8565503,144.705858 C13.5193175,144.182607 11.3047018,144.182607 9,144.376127 C10.0268143,143.828789 11.0786525,143.304707 12.145505,142.813847 L12.1538463,142.813847 C15.5904628,142.112855 18.9219789,141.91186 20.6436236,142.033122 C34.6411627,143.014842 48.3309077,146.670959 61.2115464,152.080385 C61.3808748,152.153474 61.5593787,152.225733 61.7287071,152.297991 C66.3948315,154.278873 71.0200835,156.388491 75.5727662,158.626845 C86.5615976,164.029626 97.178407,170.220608 107.1154,177.337661 C108.150556,178.07935 109.202394,178.835988 110.270081,179.600932 C123.214947,188.85169 137.932341,199.503599 146.704888,212.474428 C147.926055,214.2784 145.039964,216.049981 143.827139,214.246008" id="Fill-9" fill="#FFFFFF"></path>
                </g>
                <g id="编组" transform="translate(71.000000, 78.000000)">
                    <polygon id="Fill-1" fill="#000000" points="110 187 124.21701 259 130 259 121.200933 187"></polygon>
                    <polygon id="Fill-2" fill="#000000" points="76 187 86.771168 259 93 259 88.0640489 187"></polygon>
                    <g>
                        <path d="M65.0277996,54.1125525 L10.4009986,54.1125525 C2.6473452,60.7045505 -0.453382909,71.062858 1.09881423,85.1874751 C2.65101137,99.3120922 5.8084913,127.703735 10.571254,170.362403 L71.7653185,167.788768 L79.9369243,167.788768 L84.0974415,167.788768 C108.352254,147.665913 78.3427354,113.582455 78.3427354,85.6535704 C78.3427354,66.8072673 72.0065388,53.9291522 65.0277996,54.1125525 Z" id="Fill-3" fill="#000000"></path>
                        <path d="M111.158649,171.130791 C104.770793,171.130791 94.3167733,163.30898 86.1865805,163.30898 L30.4394924,163.30898 C28.5524236,163.30898 27.0406338,164.703676 25.8319705,166.844341 C20.8162951,175.726462 25.3525184,189.181648 33.2248402,189.181648 L76.8946876,189.181648 L79.4891938,189.181648 L124.467608,189.181648 C133.768894,189.181648 134.323914,168.804166 125.040133,167.971614 C120.003538,167.520364 114.352577,171.130791 111.158649,171.130791" id="Fill-7" fill="#000000"></path>
                        <path d="M10.5234873,54.7220814 C19.2014004,55.0117942 24.1457848,62.0628182 25.3566406,75.8751533 C26.5674964,89.6874884 27.6197202,112.26783 28.5133119,143.616178" id="路径-4" stroke="#979797"></path>
                        <path d="M22.4607622,189.181776 C12.6065882,189.181776 6.92837355,175.72659 13.2062076,166.844469 C14.7191512,164.703377 16.6120676,163.309108 18.9742049,163.309108 C29.1511687,163.309108 42.2364473,171.130919 50.2329768,171.130919 C54.2315087,171.130919 61.3045601,167.520491 67.6091152,167.971742 C79.2306169,168.804294 78.5353362,189.181776 66.8929921,189.181776 L22.4607622,189.181776 Z" id="Fill-9" stroke="#979797" fill="#000000"></path>
                        <g transform="translate(23.544561, 189.083465)">
                            <mask id="mask-4" fill="white">
                                <use xlink:href="#path-3"></use>
                            </mask>
                            <g id="Clip-12"></g>
                            <polygon id="Fill-11" fill="#000000" mask="url(#mask-4)" points="9.68049247 0.0983111063 0.181961255 69.5217331 6.42465828 69.5217331 21.7713952 0.0983111063"></polygon>
                        </g>
                        <g transform="translate(60.688224, 189.083465)">
                            <mask id="mask-6" fill="white">
                                <use xlink:href="#path-5"></use>
                            </mask>
                            <g id="Clip-14"></g>
                            <polygon id="Fill-13" fill="#000000" mask="url(#mask-6)" points="4.94830441 0.0983111063 0.00222008101 69.5217331 6.2449171 69.5217331 17.0396341 0.0983111063"></polygon>
                        </g>
                        <path d="M131.598669,77.5597987 L135.864803,75.0922607 C135.864803,75.0922607 138.861615,64.9702022 142.765825,61.6042545 C146.670461,58.2378802 156.070671,56.4416947 156.677202,58.3075791 C157.282453,60.1730361 149.559427,61.3155349 147.663556,62.4120289 C145.76726,63.5089494 144.390726,66.2084301 144.390726,66.2084301 C144.390726,66.2084301 149.025101,64.4771563 151.895204,64.1496752 C155.858132,63.6977439 161.230826,63.6903303 160.298695,66.6994078 C159.981737,67.7229123 154.402107,66.9856124 153.129696,67.2465145 C151.856858,67.5078431 147.198456,69.804065 147.198456,69.804065 C147.198456,69.804065 151.517954,68.1869831 155.598737,69.4965624 C159.679519,70.8065684 162.690363,72.7518055 161.41143,74.4050507 C160.31971,75.8164513 155.803041,72.5395211 154.816804,72.4767028 C153.830994,72.413458 149.919845,73.1368026 149.919845,73.1368026 C149.919845,73.1368026 153.613507,74.3249932 155.454147,75.31763 C157.295214,76.3106938 158.612056,77.7651793 157.002787,78.5379531 C155.393517,79.3098735 151.502479,76.8922347 148.442755,76.1293784 C148.442755,76.1293784 148.200418,81.0956995 141.556734,80.8229508 L135.375365,84.0814501 L131.598669,77.5597987 Z" id="Fill-15" fill="#E9C092" transform="translate(146.653873, 70.818489) rotate(-41.000000) translate(-146.653873, -70.818489) "></path>
                        <path d="M99.0705217,73.3903155 C104.528202,80.5237689 111.774656,93.0430086 120.809884,110.948034 L141.265724,80.7298412 L145.481743,90.0354886 C145.481743,90.0354886 134.999437,127.035428 119.376471,127.035428 L119.376225,124.300204 L117.361855,128.318756 C117.361855,128.318756 108.116583,115.557461 99.6964992,104.468992 C103.19806,101.991491 98.9623021,90.0234833 86.9892251,68.5649676 C89.0666011,63.9698699 93.0936999,65.5783193 99.0705217,73.3903155 Z" id="形状结合" fill="#FFFFFF"></path>
                        <path d="M58.0166556,143.616178 C58.0166556,143.616178 51.8542231,168.489954 64.3660873,173.712172 C76.8779516,178.934816 134.779216,178.472509 134.779216,178.472509 C134.779216,178.472509 131.72968,241.23143 127.64907,263.139556 C129.011167,267.991067 130.627815,270.848946 132.499014,271.713195 C133.150244,272.013979 135.31724,272.728377 139,273.85639 C139,273.85639 149.330186,271.922701 149.780591,270.576185 C150.550514,268.274453 137.970358,267.107187 139,261.704793 C143.138175,239.992351 162.075099,174.571426 162.075099,164.851747 C162.075099,154.166332 101.117821,151.829527 101.117821,151.829527 L101.117821,143.616178 L58.0166556,143.616178 Z" id="Fill-21" fill="#E9C092"></path>
                        <path d="M58.8204957,64.1500951 L87.4655179,65.5874419 C92.4183186,66.8417338 96.4953124,69.4426917 99.6964992,73.3903155 C108.503286,84.2506262 114.301027,108.57337 114.650408,112.093023 C115.334389,118.983428 94.3807497,82.5873448 101.11765,97 C107.85455,111.412655 95.9035105,121.917264 95.8927319,125.585449 C98.0112585,125.398926 99.0705217,125.610189 99.0705217,126.219238 C99.0705217,128.088424 99.2791809,132.107881 99.6964992,138.277608 L95.4771941,143.616178 L47.1419304,152.240045 L48.4391473,141.362049 C48.4638341,140.554897 46.7431638,139.663703 43.2771364,138.688467 C42.6119436,134.811215 36.6086353,119.185591 35.3030829,106.365427 C33.7960784,91.5670606 34.575646,81.7359732 38.1568627,76.6957364 C40.5098201,73.3837805 47.3976978,69.2019001 58.8204957,64.1500951 Z" id="路径" fill="#FFFFFF"></path>
                        <polygon id="Fill-25" fill="#C8C9CA" points="87.465646 63.7396196 87.973276 73.3903155 81.5559611 67.6541504"></polygon>
                        <polygon id="Fill-27" fill="#F7F7F7" points="78.8860148 71.5424506 87.4657741 63.7398329 82.6161779 59.4273661"></polygon>
                        <polygon id="Fill-29" fill="#E9C092" points="61.7525823 37.9017122 62.9608187 60.2232382 78.8860575 71.5424506 82.8412172 61.6861757 81.5561319 48.7500549"></polygon>
                        <path d="M82.5170854,56 C83.3098276,53.1478247 83.6078215,50.7311764 83.4110672,48.7500549 C83.2143129,46.7689334 82.5959727,46.7689334 81.5560465,48.7500549 L61.752497,37.9017122 L61.7571933,37.9827495 C61.8150169,38.9532164 57.2830911,56.7538981 64.6748047,62.4404297 C66.5619979,63.8922695 71.0854435,60.0471341 75.5105951,58.426768 C78.0679162,57.490349 80.6597186,58.7932357 82.5170854,58.426768" id="Fill-31" fill="#C48E52"></path>
                        <path d="M73.7970768,6.9901788 C88.3219568,5.40242639 95.9953253,12.2818625 94.3511845,24.4529822 C92.7070438,36.6241019 96.817908,54.7220814 82.8412172,54.7220814 C71.0564295,54.7220814 60.3681484,48.2659709 60.3681484,22.0717658 C60.3681484,22.0717658 58.7970141,8.62945485 73.7970768,6.9901788 Z" id="Fill-33" fill="#E9C092"></path>
                        <path d="M76.6883864,23.0663385 C76.6883864,23.0663385 76.526574,20.4322246 75.0492976,20.4322246 C73.5723164,20.4322246 69.0985577,21.2223394 68.9966868,23.7251653 C68.9966868,23.7251653 73.2802864,22.8031658 76.6883864,23.0663385" id="Fill-35" fill="#000000"></path>
                        <g transform="translate(40.698039, 0.000000)">
                            <path d="M33.8645813,67.6540651 C33.8645813,67.6540651 37.3417832,70.3320084 42.4778552,67.6539371 C42.4778552,67.6539371 47.633908,66.0665006 45.2170083,71.5424932 C39.5193327,73.0110906 36.7903767,74.1912785 37.0301405,75.083057 C37.9628172,78.5520595 36.2636821,100.532049 33.8645813,103.171387 C32.2681165,104.927716 30.0805764,101.482729 27.3019608,92.8364258 C27.1234006,90.9454753 29.477679,85.0276857 34.3647961,75.083057 C31.9043097,81.5155148 21.9836805,87.2058167 21.0545431,87.4912109 C19.8202591,87.8703341 22.4553225,84.9158983 20.2750614,80.7298412 C20.1292671,80.4499192 20.2805186,79.1661725 20.2750614,78.9470712 C20.2112703,76.3858863 28.8031059,78.6797484 29.875203,75.8751533 C30.5626116,74.0768994 29.0129248,73.4270457 26.265671,70.7054264 C22.4326337,66.9081549 15.6689825,60.7255519 19.6229774,64.1500951 L33.8645813,67.6540651 Z" id="Fill-55" fill="#85CACD"></path>
                            <path d="M22.3421047,56 L34.4088854,65.5874846 C33.9760151,68.3844513 33.3821434,70.3694542 32.6272704,71.5424932 C31.8723974,72.7155323 30.2594988,74.1597523 27.7885746,75.8751533 L18.4232246,63.7396196 L22.3421047,56 Z" id="Fill-57" fill="#EEEEEF"></path>
                            <path d="M28.8794858,12.4794785 C26.265671,14.0898437 57.3019608,14.0898437 51.9055789,41.6545042 C50.311104,49.7990645 44.7173887,52.9978738 42.4778552,54.7220814 C41.6626275,55.3497218 41.789048,57.292198 41.713028,58.426768 C41.5739873,60.5018968 41.6331626,59.1046233 43.115065,60.9568186 C45.8334366,64.3544479 52.1980766,66.8759305 53.8724596,68.5649676 C53.8724596,68.5649676 61.0438726,62.5978105 61.2410912,50.3317472 C61.3712129,42.2387898 57.9638456,12.8654423 48.2672667,5.67504324 C40.6142137,-7.25530747e-14 25.8230648,-2.47863429 13.9035476,6 C5.86882525,11.7152879 3.05577526,30.1711716 1.28438266,44.3485533 C-0.683559004,60.09902 4.47428541,68.252739 4.92114005,70.4233621 C5.51322197,73.2994354 18.7469256,81.1987883 22.6453276,78.3294574 C23.8508517,77.4421585 26.4161276,72.8543057 26.416055,67.2910156 C26.4159854,61.9505078 23.8737381,55.6671262 23.8737381,52.9643555 C23.8737381,50.3317472 23.0558482,46.2915039 22.6453276,43.6308594 C21.8740648,38.6321918 20.8145587,33.3563532 21.0544577,31.2277742 C21.0544577,31.2277742 23.6733958,20.0082752 28.8794858,12.4794785 Z" id="Fill-37" fill="#220EDB"></path>
                        </g>
                        <path d="M75.1069246,27.6685283 C74.122831,27.6685283 73.3253096,28.4652535 73.3253096,29.447938 C73.3253096,30.4310491 74.122831,31.2277742 75.1069246,31.2277742 C76.0905913,31.2277742 76.8876858,30.4310491 76.8876858,29.447938 C76.8876858,28.4652535 76.0905913,27.6685283 75.1069246,27.6685283" id="Fill-39" fill="#000000"></path>
                        <path d="M86.9150475,22.6522885 C86.9150475,22.6522885 87.030982,20.0181746 88.0857527,20.0181746 C89.1408148,20.0181746 92.3362955,20.8082894 92.4091186,23.3111153 C92.4091186,23.3111153 89.3496717,22.3891158 86.9150475,22.6522885" id="Fill-41" fill="#000000"></path>
                        <path d="M89.6949916,27.6685283 C90.6786582,27.6685283 91.4761796,28.4652535 91.4761796,29.447938 C91.4761796,30.4310491 90.6786582,31.2277742 89.6949916,31.2277742 C88.7113249,31.2277742 87.9133766,30.4310491 87.9133766,29.447938 C87.9133766,28.4652535 88.7113249,27.6685283 89.6949916,27.6685283" id="Fill-43" fill="#000000"></path>
                        <path d="M84.7313092,30.9161535 C84.7313092,30.9161535 84.5489326,33.1164022 85.3856709,34.9276431 C86.3817488,37.0829825 83.4110672,37.5020349 83.4110672,37.5020349 C83.4110672,37.5020349 87.1222252,37.5131832 86.6691634,35.7059687 C86.3630998,34.4844342 85.523619,34.4485067 84.7313092,30.9161535" id="Fill-45" fill="#C48E52"></path>
                        <path d="M84.6086957,43.3160604 L78.0158103,42.702083 C78.0158103,42.702083 78.7610019,45.9950237 81.6848488,45.9950237 C84.6086957,45.9950237 84.6086957,43.3160604 84.6086957,43.3160604" id="Fill-47" fill="#6B4214"></path>
                        <path d="M62.4236445,30.144265 C62.4236445,30.144265 59.546078,25.0107618 56.1198953,27.8854554 C52.6941395,30.7601489 55.0926809,40.5481818 63.0401439,36.6464464 L62.4236445,30.144265 Z" id="Fill-49" fill="#E9C092"></path>
                        <path d="M56.6685115,32.3347047 C56.6685115,32.3347047 57.068553,29.4600112 58.8207092,29.6655901 C60.5737193,29.8707426 61.7811019,34.7995198 60.3209716,35.3126142 C58.8608414,35.8257086 57.5586785,33.2244095 59.3407205,32.0608837 C59.3407205,32.0608837 59.2946111,30.8414848 58.2439151,30.7779345 C57.1932191,30.7143841 56.6685115,32.3347047 56.6685115,32.3347047" id="Fill-51" fill="#A57034"></path>
                        <polygon id="Fill-53" fill="#C8C9CA" points="75.1069246 65.5875272 78.8861856 71.5424932 72.1350047 68.5650102"></polygon>
                        <path d="M114.650408,189.181648 L110.191782,265.002814 C113.48911,269.219352 115.886158,271.580392 117.382924,272.085933 C124.376837,274.448167 128.534505,270.946524 128.636749,270.252536 C128.961904,268.045545 119.099629,265.346118 120.168566,261.306202 C124.307285,245.66443 133.958476,195.141572 129.733333,190.511628 L114.650408,189.181648 Z" id="Fill-63" fill="#E9C092"></path>
                        <path d="M48.3580224,143.616178 C48.3580224,143.616178 42.1951629,168.489954 54.7078811,173.712172 C67.2193184,178.934816 83.0813702,177.60495 83.0813702,177.60495 C83.0813702,177.60495 99.6964992,181.79845 102.126762,189.083465 C106.630561,202.584164 98.3088105,213.987857 101.516637,225.364341 C102.553588,229.041865 118.316456,229.041865 148.805241,225.364341 C157.283266,225.364341 169.391545,170.418568 162.075099,160.015504 C154.758653,149.61244 95.8927319,143.616178 91.4596144,151.829527 L91.4596144,143.616178 L48.3580224,143.616178 Z" id="Fill-61" fill="#85CACD"></path>
                        <path d="M101.11765,151.008491 L101.11765,143.616178 L91.4594436,143.616178 L58.0164849,143.616178 L48.3578517,143.616178 C48.3578517,143.616178 47.5842388,146.742087 47.1419304,151.008491 L101.11765,151.008491 Z" id="Fill-67" fill="#85CACD"></path>
                        <polygon id="Fill-69" fill="#85CACD" points="79.0380477 152.240045 95.8927319 152.240045 95.8927319 142.384623 79.0380477 142.384623"></polygon>
                        <path d="M99.0705217,127.40329 L103.956408,126.724283 C103.956408,126.724283 110.556025,118.481931 115.446181,116.835593 C120.335482,115.188402 129.727279,117.062071 129.584681,119.016777 C129.442084,120.971483 121.851968,119.123832 119.680131,119.425803 C117.509148,119.727347 115.213499,121.708497 115.213499,121.708497 C115.213499,121.708497 120.162572,121.849673 122.946212,122.625925 C126.790795,123.697751 131.773596,125.712595 129.772961,128.147128 C129.092421,128.975842 124.200131,126.193701 122.92145,125.95656 C121.643622,125.719846 116.458879,126.093044 116.458879,126.093044 C116.458879,126.093044 121.072378,126.220998 124.36066,128.968591 C127.648515,131.716184 129.704651,134.649736 127.895712,135.69853 C126.350194,136.594632 123.400048,131.861624 122.510308,131.432553 C121.620568,131.003481 117.722618,130.201638 117.722618,130.201638 C117.722618,130.201638 120.697953,132.690764 122.028721,134.302128 C123.359916,135.914345 124.031063,137.756026 122.248167,137.864786 C120.464418,137.974827 117.771289,134.272272 115.223319,132.415664 C115.223319,132.415664 113.124488,136.921341 107.068364,134.169909 L100.109263,134.861286 L99.0705217,127.40329 Z" id="Fill-71" fill="#E9C092"></path>
                        <polygon id="Fill-73" fill="#7E7509" points="11.039955 146.080353 269.475316 146.080353 269.475316 138.688467 11.039955 138.688467"></polygon>
                        <polygon id="Fill-74" fill="#F6E62E" points="11.039955 146.080353 90.5594143 146.080353 90.5594143 138.688467 11.039955 138.688467"></polygon>
                        <polygon id="Fill-75" fill="#F6E62E" points="25.5244893 146.080268 5.66287606 258.6049 14.2960026 258.6049 34.1571889 146.080268"></polygon>
                        <polygon id="Fill-76" fill="#7E7509" points="30.3846735 146.080268 10.5234873 258.6049 14.2959172 258.6049 34.1571035 146.080268"></polygon>
                        <polygon id="Fill-77" fill="#F6E62E" points="105.310956 146.080268 85.4493428 258.6049 94.0824694 258.6049 113.943656 146.080268"></polygon>
                        <polygon id="Fill-78" fill="#7E7509" points="110.17114 146.080268 90.309954 258.6049 94.082384 258.6049 113.94357 146.080268"></polygon>
                        <polygon id="Fill-79" fill="#FFFAC6" points="257.810413 146.080268 277.672026 258.6049 269.038899 258.6049 249.177713 146.080268"></polygon>
                        <polygon id="Fill-80" fill="#7E7509" points="252.950228 146.080268 272.811415 258.6049 269.038985 258.6049 249.177798 146.080268"></polygon>
                        <polygon id="Fill-81" fill="#FFFAC6" points="178.024159 146.080268 197.884919 258.6049 189.252646 258.6049 169.39146 146.080268"></polygon>
                        <polygon id="Fill-82" fill="#7E7509" points="173.163975 146.080268 193.025161 258.6049 189.252731 258.6049 169.391545 146.080268"></polygon>
                        <path d="M110.179764,134.992183 L110.179764,138.277608 L201.097632,138.277608 C202.914256,138.277608 204.386767,136.806993 204.386767,134.992183 L110.179764,134.992183 Z" id="Fill-83" fill="#220EDB"></path>
                        <path d="M110.179466,134.991372 C110.179466,136.805756 111.65155,138.27765 113.467747,138.27765 L133.405355,138.27765 C135.221552,138.27765 136.694064,136.805756 136.694064,134.991372 L110.179466,134.991372 Z" id="Fill-84" fill="#220EDB"></path>
                        <path d="M146.045045,82.0146946 L136.694235,134.992225 L204.112972,134.992225 C205.929169,134.992225 207.660405,133.520758 207.980609,131.705947 L216.171854,85.3001196 C216.492485,83.4857359 215.279552,82.0146946 213.462928,82.0146946 L146.045045,82.0146946 Z" id="Fill-85" fill="#220EDB"></path>
                        <path d="M146.045045,82.0146946 L136.694235,134.992225 C138.510432,134.992225 140.242522,133.520758 140.562726,131.705947 L148.753971,85.3001196 C149.074175,83.4857359 147.861242,82.0146946 146.045045,82.0146946" id="Fill-86" fill="#D3F7F4"></path>
                        <path d="M173.023469,108.503119 C172.582869,110.998216 174.250491,113.020738 176.747655,113.020738 C177.356637,113.020738 178.363746,113.506964 180.695386,111.323237 C181.974967,110.12483 181.164383,107.67365 181.208353,107.405472 C181.344092,106.57759 178.090816,109.928472 178.342698,108.50346 C178.782872,106.008789 180.840289,103.985926 178.342698,103.985926 C175.84468,103.985926 173.463643,106.008448 173.023469,108.503119 Z" id="Fill-87" fill="#FFFFFF"></path>
                        <path d="M38.1568627,75.8751533 C48.9828789,75.8751533 54.3958869,80.8173955 54.3958869,90.7018799 C54.3958869,105.528606 50.7515259,127.035428 66.9637102,127.035428 C77.771833,127.035428 88.3893846,126.680489 98.8163649,125.97061" id="路径-3" stroke="#979797" opacity="0.162132626"></path>
                    </g>
                </g>
                <path d="M172,174 C174.504348,180.516134 174.504348,187.06289 172,193.640267" id="路径-5" stroke="#979797" opacity="0.162132626"></path>
            </g>
        </g>
    </g>
</svg>