<?xml version="1.0" encoding="UTF-8"?>
<svg width="96px" height="130px" viewBox="0 0 96 130" version="1.1" xmlns="http://www.w3.org/2000/svg" xmlns:xlink="http://www.w3.org/1999/xlink">
    <!-- Generator: Sketch 58 (84663) - https://sketch.com -->
    <title>workbench_Shortcut_Addinterview_bg</title>
    <desc>Created with Sketch.</desc>
    <defs>
        <rect id="path-1" x="0" y="0" width="86" height="120" rx="10"></rect>
        <filter x="-9.9%" y="-5.4%" width="119.8%" height="114.2%" filterUnits="objectBoundingBox" id="filter-3">
            <feOffset dx="0" dy="2" in="SourceAlpha" result="shadowOffsetOuter1"></feOffset>
            <feGaussianBlur stdDeviation="2.5" in="shadowOffsetOuter1" result="shadowBlurOuter1"></feGaussianBlur>
            <feColorMatrix values="0 0 0 0 0   0 0 0 0 0   0 0 0 0 0  0 0 0 0.05 0" type="matrix" in="shadowBlurOuter1"></feColorMatrix>
        </filter>
    </defs>
    <g id="切图" stroke="none" stroke-width="1" fill="none" fill-rule="evenodd">
        <g transform="translate(-211.000000, -427.000000)" id="workbench_Shortcut_Addinterview_bg">
            <g transform="translate(216.000000, 430.000000)">
                <g id="icon_导出excel">
                    <mask id="mask-2" fill="white">
                        <use xlink:href="#path-1"></use>
                    </mask>
                    <g id="蒙版">
                        <use fill="black" fill-opacity="1" filter="url(#filter-3)" xlink:href="#path-1"></use>
                        <use fill="#FFFFFF" fill-rule="evenodd" xlink:href="#path-1"></use>
                    </g>
                    <g opacity="0.1" mask="url(#mask-2)" id="编组">
                        <g transform="translate(54.000000, 83.000000)">
                            <g transform="translate(0.600000, 0.040000)">
                                <g>
                                    <path d="M8.04996011,22.68009 C7.24087692,22.68009 -0.103872747,25.6302898 0.00111461347,29.943171 C6.79549026,29.943171 10.846085,29.943171 12.1528987,29.943171 C14.0579934,29.943171 23.3762546,30.6110363 25.0666667,29.943171 C24.5287462,28.4098416 23.4792649,26.9887514 21.9182228,25.6799004 C18.2675545,22.6190087 16.5430563,22.68009 16.1082643,22.68009 L8.04996011,22.68009 Z" id="Fill-17" fill="#F6E62E"></path>
                                    <path d="M10.0266667,22.0019947 C10.0266667,23.0721977 10.8685328,23.94 11.9070261,23.94 C12.9448005,23.94 13.7866667,23.0721977 13.7866667,22.0019947 L13.7866667,15.7987467 C13.7866667,14.7278023 12.9448005,13.86 11.9070261,13.86 C10.8685328,13.86 10.0266667,14.7278023 10.0266667,15.7987467 L10.0266667,22.0019947 Z" id="Fill-21" fill="#FFFFFF"></path>
                                    <path d="M8.14631207,11.34 C10.5695988,11.34 12.5333333,9.36594614 12.5333333,6.93017139 C12.5333333,4.49439664 10.5695988,2.52 8.14631207,2.52 C5.72373454,2.52 3.76,4.49439664 3.76,6.93017139 C3.76,9.36594614 5.72373454,11.34 8.14631207,11.34 Z" id="Fill-23" fill="#220EDB"></path>
                                    <path d="M5.01317503,15.12 C6.39765919,15.12 7.52,13.710266 7.52,11.9703826 C7.52,10.2301166 6.39765919,8.82 5.01317503,8.82 C3.62932407,8.82 2.50666667,10.2301166 2.50666667,11.9703826 C2.50666667,13.710266 3.62932407,15.12 5.01317503,15.12 Z" id="Fill-25" fill="#220EDB"></path>
                                    <path d="M7.5201583,12.6 C8.90432586,12.6 10.0266667,11.4716007 10.0266667,10.08 C10.0266667,8.68809327 8.90432586,7.56 7.5201583,7.56 C6.13567414,7.56 5.01333333,8.68809327 5.01333333,10.08 C5.01333333,11.4716007 6.13567414,12.6 7.5201583,12.6 Z" id="Fill-27" fill="#FFFFFF"></path>
                                    <path d="M18.7998417,15.12 C20.1844676,15.12 21.3066667,13.710266 21.3066667,11.9703826 C21.3066667,10.2301166 20.1844676,8.82 18.7998417,8.82 C17.4155324,8.82 16.2933333,10.2301166 16.2933333,11.9703826 C16.2933333,13.710266 17.4155324,15.12 18.7998417,15.12 Z" id="Fill-29" fill="#220EDB"></path>
                                    <path d="M6.26666667,12.6005099 C6.26666667,16.0793275 9.07169362,18.9 12.5328008,18.9 C15.994263,18.9 18.8,16.0793275 18.8,12.6005099 L18.8,7.56020395 C18.8,4.08067255 15.994263,1.26 12.5328008,1.26 C9.07169362,1.26 6.26666667,4.08067255 6.26666667,7.56020395 L6.26666667,12.6005099 Z" id="Fill-31" fill="#FFFFFF"></path>
                                    <path d="M12.9941881,7.08949262 C15.4166356,9.39683579 19.3442323,9.39683579 21.767028,7.08949262 L22.56,6.33574283 L18.1803709,2.16541404 C16.6640776,0.721915218 14.6772946,0 12.6901632,0 C10.8402436,0 8.98997569,0.625748285 7.52,1.87691324 L12.9941881,7.08949262 Z" id="Fill-33" fill="#220EDB"></path>
                                </g>
                            </g>
                        </g>
                    </g>
                </g>
            </g>
        </g>
    </g>
</svg>