<?xml version="1.0" encoding="UTF-8"?>
<svg width="96px" height="130px" viewBox="0 0 96 130" version="1.1" xmlns="http://www.w3.org/2000/svg" xmlns:xlink="http://www.w3.org/1999/xlink">
    <!-- Generator: Sketch 58 (84663) - https://sketch.com -->
    <title>workbench_Shortcut_Addcontract_bg</title>
    <desc>Created with Sketch.</desc>
    <defs>
        <rect id="path-1" x="0" y="0" width="86" height="120" rx="10"></rect>
        <filter x="-9.9%" y="-5.4%" width="119.8%" height="114.2%" filterUnits="objectBoundingBox" id="filter-3">
            <feOffset dx="0" dy="2" in="SourceAlpha" result="shadowOffsetOuter1"></feOffset>
            <feGaussianBlur stdDeviation="2.5" in="shadowOffsetOuter1" result="shadowBlurOuter1"></feGaussianBlur>
            <feColorMatrix values="0 0 0 0 0   0 0 0 0 0   0 0 0 0 0  0 0 0 0.05 0" type="matrix" in="shadowBlurOuter1"></feColorMatrix>
        </filter>
    </defs>
    <g id="切图" stroke="none" stroke-width="1" fill="none" fill-rule="evenodd">
        <g transform="translate(-321.000000, -427.000000)" id="workbench_Shortcut_Addcontract_bg">
            <g transform="translate(326.000000, 430.000000)">
                <g id="icon_导出excel">
                    <mask id="mask-2" fill="white">
                        <use xlink:href="#path-1"></use>
                    </mask>
                    <g id="蒙版">
                        <use fill="black" fill-opacity="1" filter="url(#filter-3)" xlink:href="#path-1"></use>
                        <use fill="#FFFFFF" fill-rule="evenodd" xlink:href="#path-1"></use>
                    </g>
                    <g opacity="0.1" mask="url(#mask-2)">
                        <g transform="translate(50.000000, 68.000000)">
                            <g id="编组" stroke-width="1" fill="none" transform="translate(0.600000, 0.400000)">
                                <path d="M0,25.8193548 L0,51.2 C2.705415e-16,53.409139 1.790861,55.2 4,55.2 L36.8,55.2 C39.009139,55.2 40.8,53.409139 40.8,51.2 L40.8,47.1870968 L40.8,47.1870968 L40.8,25.8193548 L40.8,8.78214194 L30.4547277,0 L4,0 C1.790861,4.05812251e-16 -2.705415e-16,1.790861 0,4 L0,10.683871 L0,10.683871 L0,25.8193548 Z" id="Fill-4" fill="#F6E62E"></path>
                                <path d="M30.8856728,0 L29.837694,6.029587 C29.4594035,8.20609601 30.9171477,10.2771702 33.0936567,10.6554606 C33.6261078,10.7480039 34.1717903,10.7316906 34.6977623,10.6075057 L40.8,9.16673371 L40.8,9.16673371 L30.8856728,0 Z" id="Fill-10" fill="#AFA9E6"></path>
                            </g>
                            <rect id="Rectangle-7" fill="#220EDB" x="7.8" y="38.8" width="27.6" height="2.4" rx="1.2"></rect>
                            <rect id="Rectangle-7" fill="#220EDB" x="7.8" y="43.6" width="27.6" height="2.4" rx="1.2"></rect>
                            <polygon id="星形" fill="#220EDB" points="21 27.9578125 15.3572616 29.7665631 15.3337836 23.8410653 11.8698574 19.0334369 17.4980857 17.1800284 21 12.4 24.5019143 17.1800284 30.1301426 19.0334369 26.6662164 23.8410653 26.6427384 29.7665631"></polygon>
                        </g>
                    </g>
                </g>
            </g>
        </g>
    </g>
</svg>